<svg xmlns="http://www.w3.org/2000/svg" xmlns:xlink="http://www.w3.org/1999/xlink" version="1.1" x="0px" y="0px" viewBox="0 0 100 100" enable-background="new 0 0 100 100" xml:space="preserve"><path d="M75.089,62.659c-11.983-0.448-18.501,4.213-22.049,9.549V50.755h-0.243c6.156-1.596,20.352-8.245,10.855-35.08  c0,0-3.271,1.776-7.103,4.797c-1.362-2.41-3.092-4.984-5.267-7.734c0,0-3.145,3.412-6.103,8.323  c-2.254-1.804-4.953-3.621-8.188-5.43c0,0-11.658,31.637,11.048,35.35v27.346C40.028,61.55,21.274,66.413,21.274,66.413  c4.535,23.521,23.99,21.216,28.465,20.359h3.301v-0.107C75.665,85.026,75.089,62.659,75.089,62.659z"></path></svg>