<svg xmlns="http://www.w3.org/2000/svg" xmlns:xlink="http://www.w3.org/1999/xlink" version="1.1" x="0px" y="0px" viewBox="0 0 100 100" enable-background="new 0 0 100 100" xml:space="preserve"><path fill="#000000" d="M67.2,64.7c0,3.5-2.8,6.3-6.3,6.3h-4.2c-3.5,0-6.3-2.8-6.3-6.3V59c0-3.5,2.8-6.3,6.3-6.3H61  c3.5,0,6.3,2.8,6.3,6.3V64.7z M84.4,44v-3.7c0-4.3-2.9-7.9-6.8-9.1v-3.7c0-5.3-4.3-9.6-9.6-9.6h-1.2v-3.2c0-5.3-4.3-9.6-9.6-9.6  H42.9c-5.3,0-9.6,4.3-9.6,9.6v3.2H32c-5.3,0-9.6,4.3-9.6,9.6v3.7c-3.9,1.2-6.8,4.8-6.8,9.1V44c-3.9,1.2-6.8,4.8-6.8,9.1v6.5  c0,5.3,4.2,9.5,9.5,9.6v3.3c0,5.3,4.2,9.5,9.5,9.6v3.3c0,5.3,4.3,9.6,9.6,9.6h25.1c5.3,0,9.6-4.3,9.6-9.6v-3.3  c5.3-0.1,9.5-4.3,9.5-9.6v-3.3c5.3-0.1,9.5-4.3,9.5-9.6v-6.5C91.2,48.9,88.3,45.3,84.4,44z"></path></svg>