<svg xmlns="http://www.w3.org/2000/svg" xmlns:xlink="http://www.w3.org/1999/xlink" version="1.1" x="0px" y="0px" viewBox="0 0 100 100" enable-background="new 0 0 100 100" xml:space="preserve"><g><path d="M90.5,78.8h-1.6c0.1-0.5,0.2-0.9,0.2-1.4c0-1.5-0.5-2.9-1.4-3.9c0.8-1.1,1.4-2.5,1.4-3.9c0-2.1-1-4-2.6-5.2   c0.4-0.8,0.6-1.8,0.6-2.7c0-2.1-1-4-2.6-5.2c0.4-0.8,0.6-1.8,0.6-2.7c0-2.1-1-4-2.6-5.2c0.4-0.8,0.6-1.8,0.6-2.7   c0-2.8-1.8-5.1-4.2-6c0.2-0.6,0.3-1.2,0.3-1.8c0-2.8-1.8-5.1-4.2-6c0.2-0.6,0.3-1.2,0.3-1.8c0-3.6-2.9-6.4-6.4-6.4h-1.6   c0.1-0.5,0.2-0.9,0.2-1.4c0-2.8-1.8-5.2-4.3-6.1c-1.1-5.5-6.8-9.7-13.6-9.7c-6.7,0-12.3,4.1-13.6,9.4c-2.9,0.6-5.2,3.2-5.2,6.3   c0,0.5,0.1,1,0.2,1.5c-3.4,0.2-6.1,3-6.1,6.4c0,0.6,0.1,1.3,0.3,1.8c-2.5,0.9-4.2,3.3-4.2,6c0,0.6,0.1,1.3,0.3,1.8   c-2.5,0.9-4.2,3.3-4.2,6c0,1,0.2,1.9,0.6,2.7c-1.6,1.2-2.6,3-2.6,5.2c0,1,0.2,1.9,0.6,2.7c-1.6,1.2-2.6,3-2.6,5.2   c0,1,0.2,1.9,0.6,2.7c-1.6,1.2-2.6,3-2.6,5.2c0,1.5,0.5,2.9,1.4,3.9c-0.8,1.1-1.4,2.5-1.4,3.9c0,0.5,0.1,1,0.2,1.4H9.5   c-2.8,0-4.5,2.8-4.5,7.4c0,4.6,1.7,7.4,4.5,7.4h80.9c2.8,0,4.5-2.8,4.5-7.4C95,81.7,93.3,78.8,90.5,78.8z M39.2,78.8v-4.7   c0-0.1,0-0.2,0-0.3l0-0.3c0,0,0,0,0,0c0,0,0,0,0,0c0.1-2.4,0.7-4.8,1.7-6.9c0,0,0,0,0,0c1.6-3.2,4.1-5.6,7-6.6   c2.1-0.7,4.2-0.7,6.3,0c0,0,0,0,0,0c2.9,1,5.4,3.4,7,6.6c1,2.1,1.6,4.5,1.7,6.9c0,0,0,0,0,0c0,0,0,0,0,0l0,0.3c0,0.1,0,0.2,0,0.3   v4.7H39.2z M16,69.5c0-0.8,0.6-1.4,1.4-1.4h2H35c-0.3,0.9-0.5,1.9-0.6,2.9h-17C16.7,70.9,16,70.3,16,69.5z M18,61.6   c0-0.8,0.6-1.4,1.4-1.4h2h17.8C38.4,61,37.7,62,37.1,63H19.4C18.6,63,18,62.4,18,61.6z M19.9,53.7c0-0.8,0.6-1.4,1.4-1.4h2h53.3h2   c0.8,0,1.4,0.6,1.4,1.4c0,0.8-0.6,1.4-1.4,1.4H55.4c-2.9-0.9-5.9-0.9-8.8,0H21.4C20.6,55.1,19.9,54.5,19.9,53.7z M21.9,45.8   c0-0.8,0.6-1.4,1.4-1.4h3.9h45.4h3.9c0.8,0,1.4,0.6,1.4,1.4c0,0.8-0.6,1.4-1.4,1.4H23.4C22.6,47.3,21.9,46.6,21.9,45.8z M25.9,37.9   c0-0.8,0.6-1.4,1.4-1.4h3.9h37.5h3.9c0.8,0,1.4,0.6,1.4,1.4c0,0.8-0.6,1.4-1.4,1.4H27.3C26.5,39.4,25.9,38.7,25.9,37.9z M80.6,60.1   c0.8,0,1.4,0.6,1.4,1.4S81.4,63,80.6,63H64.8c-0.6-1-1.3-2-2.1-2.9h15.8H80.6z M82.6,68c0.8,0,1.4,0.6,1.4,1.4   c0,0.8-0.6,1.4-1.4,1.4h-15c-0.1-1-0.3-1.9-0.6-2.9h13.6H82.6z M67.8,75.9h14.8c0.8,0,1.4,0.6,1.4,1.4c0,0.8-0.6,1.4-1.4,1.4H67.8   V75.9z M35.7,22.1c0-0.8,0.6-1.4,1.4-1.4h23.7c0.8,0,1.4,0.6,1.4,1.4c0,0.8-0.6,1.4-1.4,1.4H37.2C36.4,23.6,35.7,22.9,35.7,22.1z    M49.4,11.4c3.7,0,6.9,1.8,8.2,4.3H41.2C42.5,13.2,45.7,11.4,49.4,11.4z M31.3,28.6h5.9h23.7h7.9c0.8,0,1.4,0.6,1.4,1.4   c0,0.8-0.6,1.4-1.4,1.4H31.3c-0.8,0-1.4-0.6-1.4-1.4C29.8,29.2,30.5,28.6,31.3,28.6z M16,77.4c0-0.8,0.6-1.4,1.4-1.4h16.7v2.9H17.4   C16.7,78.8,16,78.2,16,77.4z M89.7,88.6H10.3c-0.4-1.1-0.4-3.7,0-4.8h7.2h19.2h28.6h17.3h7.2C90.1,85,90.1,87.5,89.7,88.6z"></path></g></svg>