<svg xmlns="http://www.w3.org/2000/svg" viewBox="-10 0 1642.44 347.66666">
  <defs>
    <clipPath id="a">
      <path d="M631.785 747.578c41.035 0 76.02-12.988 89.516-34.637-9.406-17.75-45.918-31-89.516-31-43.601 0-80.105 13.25-89.519 31 13.496 21.637 48.476 34.637 89.519 34.637zm-79.519-52.09c.3-.179.605-.34.91-.519-.305.179-.61.34-.91.519zm144.343-6.758c.454.18.911.352 1.371.52-.46-.168-.917-.34-1.371-.52zm5.2 2.071c.574.258 1.16.508 1.714.758-.554-.25-1.14-.5-1.714-.758zm2.019.89c.32.149.652.289.969.45-.317-.161-.649-.301-.969-.45zm2.703 1.278c.676.332 1.328.652 1.977.992-.649-.34-1.301-.66-1.977-.992zm2.055 1.019c.34.184.66.364.984.543-.324-.179-.644-.359-.984-.543zm1.269.684c.313.168.633.348.946.527-.313-.179-.633-.359-.946-.527zm1.102.609c.613.348 1.223.699 1.809 1.047-.586-.348-1.196-.699-1.809-1.047zm4.102 2.481c.593.379 1.171.789 1.738 1.187-.567-.398-1.145-.808-1.738-1.187zm1.953 1.328c.254.18.5.351.742.531-.242-.18-.488-.351-.742-.531zm1.047.75c.82.621 1.621 1.23 2.379 1.871-.758-.641-1.559-1.25-2.379-1.871zm2.488 1.961c.246.187.488.398.715.597-.227-.199-.469-.41-.715-.597zm.918.777c.73.633 1.418 1.281 2.07 1.934-.652-.653-1.34-1.301-2.07-1.934" clip-rule="evenodd"/>
    </clipPath>
    <clipPath id="b">
      <path d="M542.773 672.352l184.231 9.769-3.977 75.051-184.226-9.781z"/>
    </clipPath>
    <clipPath id="c">
      <path d="M939.688 841.941c47.761 0 86.482-20.613 86.482-46.05 0-25.43-38.721-46.051-86.482-46.051-47.762 0-86.497 20.621-86.497 46.051.012 25.437 38.735 46.05 86.497 46.05" clip-rule="evenodd"/>
    </clipPath>
    <clipPath id="d">
      <path d="M853.191 841.941V749.84h172.979v92.101z"/>
    </clipPath>
  </defs>
  <g class="hide">

  <!-- <path d="M0 hv108.59845H0V230.54947"  fill-rule="evenodd"/> -->
  <rect x="-10" y="222.43466" width="2000" height="1000" fill="#e3995e"></rect>
  <!-- <path d="M0 347.66667h442.43466v-14.13493H0v14.13493M276.82266 245.19214c67.43466 0 122.10133 3.3652 122.10133 7.51467 0 4.14894-54.66668 7.512-122.10134 7.512-67.43467 0-122.10133-3.36306-122.10133-7.512 0-4.14946 54.668-7.51466 122.10133-7.51466" ill-rule="evenodd"/> -->
  <rect x="-10" y="334.43466" width="2000" height="1000" fill="#ba8766"></rect>


  </g>

  <path d="M163.128 99.768h226.996v120.40654l-226.996.00147V99.768" fill="#e6e6e6" fill-rule="evenodd"/>
  <path d="M166.28533 101.44268h220.68L166.28532 218.5z" fill="#fff" fill-rule="evenodd"/>
  <path d="M167.168 104.18534h218.91466L386.08 215.75987l-218.912-.00106V104.18535" fill="#333" fill-rule="evenodd"/>
  <path d="M183.77466 110.66134H196.088v2.764h-12.31334v-2.764M183.77466 207.168H196.088v2.764h-12.31334v-2.764" fill="#e8382e" fill-rule="evenodd"/>
  <path d="M183.77466 115.268H196.088v2.764l-12.31334.00134V115.268M183.77466 167.10934H196.088v2.764h-12.31334v-2.764" fill="#6396fa" fill-rule="evenodd"/>
  <path d="M192.73066 119.53068l22.64267-.00134v2.76534h-22.64267v-2.764" fill="#e8382e" fill-rule="evenodd"/>
  <path d="M218.048 119.53068h36.88133v2.764H218.048v-2.764" fill="#b3b3b3" fill-rule="evenodd"/>
  <path d="M204.052 124.024h37.27066v2.764H204.052v-2.764" fill="#6396fa" fill-rule="evenodd"/>
  <path d="M245.724 124.024h60.70266v2.764H245.724v-2.764M204.052 129.09334h37.27066v2.764H204.052v-2.764" fill="#b3b3b3" fill-rule="evenodd"/>
  <path d="M245.724 129.09334h88.81332v2.764H245.724v-2.764" fill="#9c3" fill-rule="evenodd"/>
  <path d="M217.53866 134.508h37.27067v2.76534h-37.27067V134.508" fill="#6396fa" fill-rule="evenodd"/>
  <path d="M259.21066 134.508h7.16667v2.76534h-7.16667V134.508M270.09066 134.50668l79.12533.00133-.00134 2.764-79.124.00134v-2.76666" fill="#b3b3b3" fill-rule="evenodd"/>
  <path d="M204.052 139l18.636.00134v2.764h-18.636V139" fill="#9c3" fill-rule="evenodd"/>
  <path d="M226.85733 139h67.62933v2.76534h-67.62933V139M300.33466 139l53.85466.00134v2.764h-53.85466V139M226.85733 143.83868l88.036-.00134v2.76534h-88.036v-2.764M204.052 148.56267h18.636v2.764h-18.636v-2.764M226.85733 148.56267l67.62933-.00133v2.76533h-67.62933v-2.764" fill="#b3b3b3" fill-rule="evenodd"/>
  <path d="M300.33466 148.56267h53.85466v2.76534l-53.85466-.00133v-2.764" fill="#9c3" fill-rule="evenodd"/>
  <path d="M204.052 154.20667h37.27066v2.764H204.052v-2.764" fill="#6396fa" fill-rule="evenodd"/>
  <path d="M245.724 154.20667h60.70266v2.764H245.724v-2.764" fill="#b3b3b3" fill-rule="evenodd"/>
  <path d="M192.72933 158.584h22.644v2.76534l-22.64267.00133-.00133-2.76666" fill="#e8382e" fill-rule="evenodd"/>
  <path d="M218.04933 158.584h36.88v2.76667H218.048l.00133-2.76666" fill="#9c3" fill-rule="evenodd"/>
  <path d="M167.168 104.18534h8.29733l-.00133 83.072h-8.296v-83.072" fill="#4d4d4d" fill-rule="evenodd"/>
  <path d="M170.21066 110.66134h3.88667v2.764h-3.88667v-2.764M170.21066 115.268l3.88534.00134.00133 2.764h-3.88667V115.268M170.21066 119.53068h3.88667v2.764h-3.88667v-2.764M170.21066 124.13868h3.88667v2.76533h-3.88667v-2.76532M170.21066 128.97734h3.88667v2.76534h-3.88667v-2.76534M170.20933 133.58534h3.888v2.76534h-3.88667l-.00133-2.76534M170.21066 137.848h3.88667v2.764h-3.88667v-2.764M170.21066 142.456h3.88667v2.764h-3.88667v-2.764M170.20933 147.52534h3.888v2.764h-3.88667l-.00133-2.764M170.21066 152.132l3.88667.00134v2.764h-3.88667V152.132M170.21066 156.39467h3.88667V159.16l-3.88667-.00133v-2.764M170.21066 161.00267h3.88667v2.764h-3.88667v-2.764M170.21066 165.84134h3.88667v2.764h-3.88667v-2.764M170.21066 170.44934h3.88667v2.76533l-3.88667-.00133v-2.764M170.21066 174.71067h3.88667v2.76534h-3.88667v-2.76533M170.21066 179.31867h3.88667v2.764h-3.88667v-2.764" fill="#fff" fill-rule="evenodd"/>
  <path d="M177.61733 104.18534h-1.076V215.5708h1.076V104.18535" fill="gray" fill-rule="evenodd"/>
  <path d="M170.20933 183.224h3.888v2.764h-3.88667l-.00133-2.764M170.21066 187.48534h3.88667v2.764h-3.88667v-2.764M170.21066 192.09334h3.88667v2.76533h-3.88667v-2.76533M170.21066 196.60534h3.88667v2.764h-3.88667v-2.764M170.21066 200.692h3.88667v2.764h-3.88667v-2.764M170.21066 204.95334h3.88667v2.764h-3.88667v-2.764M170.21066 209.56h3.88667v2.76534h-3.88667V209.56" fill="#fff" fill-rule="evenodd"/>
  <path d="M204.052 195.24667h37.27066v2.76534H204.052v-2.76533" fill="#6396fa" fill-rule="evenodd"/>
  <path d="M192.73066 199.62534h22.644l-.00133 2.764h-22.64267v-2.764" fill="#e8382e" fill-rule="evenodd"/>
  <path d="M218.048 199.62534h36.88133v2.764H218.048v-2.764" fill="#9c3" fill-rule="evenodd"/>
  <path d="M204.052 172.08667h37.27066v2.76534H204.052v-2.76533" fill="#6396fa" fill-rule="evenodd"/>
  <path d="M192.73066 176.46534h22.64267l.00133 2.764-22.644.00133v-2.76533" fill="#e8382e" fill-rule="evenodd"/>
  <path d="M218.048 176.46534h36.88l.00133 2.764-36.88134.00133v-2.76533" fill="#9c3" fill-rule="evenodd"/>
  <path d="M184.15866 186.02134H221.428v2.764h-37.26934v-2.764" fill="#6396fa" fill-rule="evenodd"/>
  <path d="M163.128 99.768h226.996v120.40654l-226.996.00147zm145.19466 134.46947l-.00133 12.53187 19.39333.00147c2.99333-.00146 5.43467 2.4224 5.43467 5.38387v.00414c0 2.96-2.44134 5.38494-5.43467 5.38494H225.53333c-2.99067 0-5.436-2.42493-5.43467-5.38227l-.00133-.0068c0-2.96146 2.444-5.38533 5.436-5.38533h19.396v-12.53187l-86.46667.00107c-4.99333-.00107-9.07733-4.0464-9.07733-8.9984l.00133-130.53613c0-4.94666 4.08267-8.99732 9.076-8.99732h236.32c4.99466 0 9.084 4.05066 9.084 8.99866v130.5348c0 4.95053-4.08667 8.99733-9.084 8.99733h-86.46" fill="#1a1a1a" fill-rule="evenodd"/>
  <path d="M244.92933 234.39067h63.392v6.0828h19.39333c2.992 0 5.43467 8.71974 5.43467 11.6812v.0052c0 2.95987-2.44267 5.38387-5.43467 5.38387H225.532c-2.98934 0-5.43334-2.424-5.43334-5.38227v-.0068c0-2.96146 2.44267-11.6812 5.43333-11.6812h19.39733v-6.0828" fill="#e6e6e6" fill-rule="evenodd"/>
  <path d="M163.128 99.76668h167.684l5.608-14.06H158.46265c-4.99333 0-9.07466 4.05066-9.07466 8.99866l-.00267 130.5348c0 4.952 4.084 8.99733 9.07733 8.9984l86.46667-.00107v.1532H277.128l5.66933-14.21466H163.128V99.7667" fill="#4d4d4d" fill-rule="evenodd"/>
  <path d="M328.18933 240.54787c.824.24947 1.59466 1.12667 2.27333 2.31094h-107.676c.67867-1.18426 1.44933-2.06146 2.27333-2.31093h103.12933" fill="#ccc" fill-rule="evenodd"/>
  <path d="M180.80133 260.2812h165.20133c1.12 0 2.03466.5052 2.03466 1.12147l.00134 29.31867c-.00134.61613-.916 1.12133-2.036 1.12133H180.80133c-1.11867 0-2.03467-.5052-2.03467-1.12133v-29.31867c0-.61626.916-1.12146 2.03467-1.12146" fill="#e6e6e6" fill-rule="evenodd"/>
  <path d="M184.87466 262.75734h10.49067c.67333 0 1.22267.30253 1.22133.67187v3.10827c0 .37187-.548.67294-1.22133.67294h-10.49067c-.67066 0-1.22133-.30106-1.22-.67293v-3.10826c0-.36933.54934-.67186 1.22-.67186M199.532 262.75734h10.492c.67066 0 1.22.30253 1.22.67187v3.10827c0 .37187-.54934.67294-1.22.67294h-10.49334c-.66933 0-1.22-.30106-1.22-.6744v-3.1068c0-.36933.55067-.67186 1.22134-.67186M214.188 262.75734h10.49066c.672 0 1.22133.30253 1.22133.6708v3.10933c0 .37187-.54934.67294-1.22134.67294H214.188c-.672 0-1.22-.30106-1.22-.67293v-3.10826c0-.36933.548-.67186 1.22-.67186M228.844 262.75734h10.49066c.67333 0 1.22133.30253 1.22133.67187v3.10827c0 .37187-.548.67294-1.22134.67294h-10.48933c-.672 0-1.22134-.30106-1.22134-.67293v-3.10933c0-.36827.54933-.6708 1.22-.6708M243.50133 262.75734H253.992c.67066 0 1.22.30253 1.22.67187v3.10827c0 .37187-.54934.67294-1.22.67294h-10.49067c-.672 0-1.22134-.30106-1.22134-.67293v-3.10826c0-.36933.54933-.67186 1.22133-.67186M258.15733 262.75734h10.48933c.672 0 1.22133.30253 1.22133.67187v3.10827c0 .37187-.54934.67294-1.22134.67187l-10.49067.00107c-.672 0-1.22-.30106-1.22-.67293v-3.10826c0-.36933.548-.67186 1.22133-.67186M272.812 262.75734h10.492c.672 0 1.22133.30253 1.22133.67187v3.1068c0 .37334-.54934.6744-1.22134.6744h-10.492c-.66934 0-1.22-.30106-1.22-.67293v-3.10826c-.00134-.36933.55066-.67186 1.22-.67186M287.46933 262.75734h10.492c.67066 0 1.22.30253 1.22.67187v3.10827c0 .37187-.54934.67294-1.22.67294h-10.492c-.67067 0-1.22-.30106-1.22-.67186v-3.10933c0-.36933.54933-.67186 1.22-.67186M302.12533 262.75734H312.616c.672 0 1.22133.30253 1.22266.67187l-.00133 3.10827c0 .37187-.54934.67294-1.22134.67294h-10.49067c-.672 0-1.22-.30106-1.22-.67293v-3.10826c0-.36933.548-.67186 1.22-.67186M316.78133 262.75734H327.272c.67333 0 1.22133.30253 1.22133.67187v3.10827c0 .37187-.548.67294-1.22.67294h-10.492c-.67067 0-1.22-.30106-1.22-.67293v-3.10826c0-.36933.54933-.67186 1.22-.67186M331.43733 262.75734h10.492c.672 0 1.22.30253 1.22.67187v3.10827c0 .37187-.548.67294-1.22.67294h-10.492c-.67067 0-1.22-.30106-1.22-.67293v-3.10826c.00133-.36933.54933-.67186 1.22-.67186M184.87466 268.25574H203.556c.67333 0 1.22133.30413 1.22133.67347l.00133 3.10827c-.00133.3704-.55067.67294-1.22267.67294h-18.68c-.67334 0-1.22134-.30253-1.22267-.67293l.00133-3.10826c0-.36933.548-.67346 1.22-.67346M207.72266 268.25574H218.212c.672 0 1.22133.30413 1.22133.67347v3.10827c0 .3704-.54934.67294-1.22134.67294h-10.48934c-.67333-.00106-1.22267-.30253-1.22267-.67293v-3.10933c0-.36827.54933-.6724 1.22266-.6724M222.37733 268.25574H232.868c.672 0 1.22133.30413 1.22133.67347v3.10827c0 .3704-.54934.67294-1.22134.67187l-10.49067.00107c-.672 0-1.22-.30253-1.22134-.67293v-3.10826c0-.36933.54933-.67346 1.22133-.67346M237.03333 268.25574h10.492c.67066 0 1.22133.30413 1.22133.67347v3.10827c0 .3704-.55067.67294-1.22133.67294h-10.492c-.67067 0-1.22-.30253-1.22-.67293v-3.10933c0-.36827.54933-.6724 1.22-.6724M251.692 268.25574h10.48933c.672 0 1.22133.30307 1.22133.67347v3.10827c0 .3704-.54933.67294-1.22133.67294H251.692c-.672 0-1.22267-.30253-1.22267-.67293v-3.10826c0-.36933.55066-.67346 1.22266-.67346M266.34666 268.25574h10.49067c.672 0 1.22133.30413 1.22133.67347v3.10827c0 .3704-.54933.67187-1.22133.67294h-10.49067c-.67067 0-1.22133-.30253-1.22133-.67293v-3.10826c.00133-.36933.55066-.67346 1.22133-.67346M281.00266 268.25574h10.49067c.672 0 1.22133.30413 1.22133.67347v3.10827c0 .3704-.54933.67294-1.22133.67294h-10.49067c-.67067 0-1.22-.30106-1.22-.67293v-3.10826c0-.36933.54933-.67346 1.22-.67346M295.65866 268.25574h10.49067c.672 0 1.22133.30413 1.22133.67347v3.10827c0 .3704-.54933.67187-1.22133.67294h-10.49067c-.672 0-1.22133-.30253-1.22133-.67293v-3.1068c0-.3708.54933-.67493 1.22133-.67493M310.31466 268.25574h10.49067c.672 0 1.22266.30413 1.22266.67347v3.10827c0 .3704-.55067.67294-1.22267.67294h-10.49067c-.672 0-1.22133-.30253-1.22133-.67293v-3.10826c0-.36933.54933-.67346 1.22133-.67346M324.972 268.25574h16.956c.672 0 1.22132.30413 1.22132.67347l-.00133 3.10827c.00132.3704-.548.67294-1.22.67294h-16.956c-.672 0-1.22134-.30253-1.22134-.67293v-3.10826c0-.36933.54933-.67346 1.22133-.67346M214.188 273.82547h10.49066c.672 0 1.22133.30374 1.22133.67294v3.1084c0 .3692-.54934.67347-1.22134.67347H214.188c-.672 0-1.22-.30426-1.22134-.67346l.00133-3.1084c0-.37026.548-.67293 1.22-.67293M228.844 273.82654l10.49066-.00107c.67333.00107 1.22133.30374 1.22133.67294v3.1084c0 .3692-.548.67347-1.22134.67347H228.844c-.67067 0-1.22-.30426-1.22-.67346v-3.1084c0-.3692.54933-.67293 1.22-.67186M243.50133 273.82547H253.992c.67066 0 1.22.30374 1.22.67294v3.1084c0 .3692-.54934.67347-1.22.67347h-10.49067c-.672 0-1.22134-.30426-1.22134-.67346v-3.1084c0-.3692.54933-.67293 1.22133-.67293M258.156 273.82547h10.49066c.672 0 1.22133.30374 1.22133.67294v3.1068c0 .3708-.54934.67507-1.22134.67507H258.156c-.672 0-1.22-.30426-1.22-.67346v-3.1084c0-.3692.548-.67293 1.22-.67293M272.812 273.82547h10.492c.672 0 1.22133.30374 1.22133.67294v3.1084c0 .3692-.54934.67347-1.22134.67347h-10.492c-.67067 0-1.22-.30426-1.22-.67346v-3.1084c0-.3692.54933-.67293 1.22-.67293M287.46933 273.82547h10.492c.67066 0 1.22.30374 1.22.67294v3.1084c.00133.3692-.54934.67347-1.22.67347h-10.492c-.67067 0-1.22-.30426-1.22-.67346v-3.1084c0-.3692.54933-.67293 1.22-.67293M302.12533 273.82547H312.616c.672 0 1.22133.30374 1.22133.67294v3.1084c0 .3692-.54934.67347-1.22134.67347h-10.49067c-.672 0-1.22-.30426-1.22-.67346v-3.1084c0-.36773.548-.67186 1.22-.67293M184.876 273.82547h23.22133c.672 0 1.22133.30374 1.22133.67294v3.1084c0 .3692-.54933.67347-1.22133.67347l-23.22133-.0016c-.672.0016-1.22134-.30266-1.22134-.67346v-3.1068c0-.3692.54934-.67293 1.22134-.67293M318.70533 273.82547h23.224c.67066 0 1.22.30374 1.22.67294v3.1084c0 .36774-.54934.67347-1.22.67347h-23.22267c-.67067 0-1.22133-.30426-1.22133-.67346v-3.1084c0-.3692.55066-.67293 1.22-.67293M185.60933 279.45307H217.48c1.07466 0 1.95333.3016 1.95333.67347v3.1084c0 .3692-.87867.67186-1.95334.67293-10.624-.00107-21.248-.00107-31.87067-.00107-1.076 0-1.95467-.30266-1.95467-.67186v-3.1084c0-.37187.87867-.67347 1.95467-.67347M222.37733 279.45307H232.868c.672 0 1.22133.3016 1.22133.67347v3.1084c0 .3692-.54934.67186-1.22134.67186h-10.49067c-.672 0-1.22134-.30266-1.22134-.67186v-3.1084c.00133-.37187.54933-.67347 1.22133-.67347M237.03333 279.45307h10.492c.67066 0 1.22133.3016 1.22133.67347v3.1084c0 .3692-.55067.67186-1.22133.67186h-10.492c-.67067 0-1.22-.30266-1.22-.67186v-3.1084c0-.37187.54933-.67347 1.22-.67347M251.692 279.45307h10.48933c.672 0 1.22133.3016 1.22133.67347v3.1084c0 .3692-.54933.67186-1.22133.67186H251.692c-.672 0-1.22267-.30266-1.22267-.67186v-3.1084c0-.37187.55066-.67347 1.22266-.67347M266.34666 279.45307h10.49067c.672 0 1.22133.3016 1.22133.67347v3.1084c0 .3692-.54933.67186-1.22.67186h-10.492c-.67067 0-1.22133-.30266-1.22133-.67186v-3.1084c0-.37187.55066-.67347 1.22133-.67347M281.00266 279.45307h10.49067c.67333 0 1.22133.3016 1.22133.67347l.00133 3.1084c-.00134.3692-.54934.67186-1.22267.67186h-10.492c-.66934 0-1.21867-.30266-1.21867-.67186v-3.1084c0-.37187.54933-.67187 1.22-.67347M295.65866 279.45307l10.49067.0016c.672-.0016 1.22133.3 1.22133.67187v3.1084c0 .3692-.54933.67186-1.22133.67186h-10.49067c-.672 0-1.22133-.30266-1.22133-.67186v-3.1084c0-.37187.54933-.67347 1.22133-.67347M341.196 279.45307c1.07466 0 1.95332.3016 1.95332.6724v3.10947c0 .3692-.87866.67186-1.95333.67186h-30.148c-1.07467 0-1.95467-.30266-1.95467-.67346v-3.1068c0-.37187.88-.67347 1.95466-.67347h30.148M214.188 285.076h10.49066c.672 0 1.22133.30107 1.22133.67187v3.10787c0 .3708-.54934.6724-1.22134.6724H214.188c-.672 0-1.22-.3016-1.22-.6724v-3.10787c0-.3708.548-.6708 1.22-.67187M229.57733 285.076H297.228c1.07466 0 1.95333.30107 1.95333.67187v3.10787c0 .3708-.87867.6724-1.95334.6724H258.89063l-5.632-.0016-9.024.0016h-14.65733c-1.076 0-1.95334-.3016-1.95334-.6724v-3.10787c0-.3708.87733-.6708 1.95333-.67187M302.12533 285.076H312.616c.67333 0 1.22266.30107 1.22133.67187v3.10787c0 .3708-.54934.6724-1.22134.6724h-10.49067c-.672 0-1.22-.3016-1.22-.6724v-3.10787c0-.3708.548-.6708 1.22-.67187M184.876 285.076h23.22133c.672 0 1.22133.30107 1.22133.67187v3.10787c0 .3708-.54933.6724-1.22133.6724H184.876c-.672 0-1.22134-.3016-1.22134-.67347v-3.1068c0-.3708.54934-.67187 1.22134-.67187" fill="#fff" fill-rule="evenodd"/>
  <path d="M301.65733 285.076h6.47066c.41333 0 .752.18547.752.41307v1.91773c0 .2292-.33867.41294-.752.41454h-6.47067c-.41334 0-.75334-.18534-.752-.41454v-1.91773c0-.2276.33866-.41307.752-.41307M325.72133 284.96934h7.132c.38533 0 .69866.17333.69866.388v1.7828c0 .212-.31334.38533-.69867.38533h-7.132c-.38534 0-.7-.17333-.7-.38533v-1.7828c0-.21467.31466-.388.7-.388M316.26 287.73494h7.132c.38533 0 .7.1744.7.38746v1.7828c0 .212-.31467.38547-.7.38547h-7.132c-.384 0-.69867-.17347-.69867-.38547v-1.7828c0-.21306.31466-.38746.69866-.38746M325.72133 287.73494h7.13066c.38666 0 .7.1744.7.38746v1.7828c0 .212-.31334.38547-.69867.38547h-7.132c-.38534 0-.7-.17347-.7-.38547v-1.7828c0-.21306.31466-.38746.7-.38746M335.18132 287.73494h7.13067c.38532 0 .70132.1744.70132.38746v1.7828c0 .212-.316.38547-.70133.38547h-7.13068c-.38533 0-.7-.17347-.7-.38547v-1.7828c0-.21306.31467-.38746.7-.38746" fill="#fff" fill-rule="evenodd"/>
  <path d="M184.87466 262.2948h10.49067c.67333 0 1.22133.30254 1.22133.67347v3.10774c0 .37094-.548.67187-1.22133.67187h-10.49067c-.67066 0-1.22-.30093-1.22-.67186v-3.10773c0-.37093.54934-.67346 1.22-.67346M199.532 262.2948h10.492c.67066 0 1.22.30254 1.22.67347v3.10774c0 .37094-.54934.67187-1.22.67187h-10.492c-.67067 0-1.22134-.30093-1.22134-.67186v-3.10773c0-.37093.55067-.67346 1.22134-.67346M214.188 262.2948h10.49066c.672.00107 1.22133.30254 1.22133.67347v3.1088c0 .36987-.54934.6708-1.22134.6708h-10.48933c-.67334 0-1.22267-.30093-1.22134-.67186v-3.10773c0-.37093.548-.67346 1.22-.67346M228.844 262.2948h10.49066c.67333 0 1.22133.30254 1.22133.67347v3.10774c0 .37094-.548.67187-1.22134.67187H228.844c-.67067 0-1.22-.30093-1.22-.67186v-3.10773c0-.37093.54933-.67346 1.22-.67346M243.50133 262.2948H253.992c.67066 0 1.22.30254 1.22.67347v3.10774c0 .37094-.54934.67187-1.22.67187h-10.48934c-.67333 0-1.22267-.30093-1.22267-.67186v-3.10773c0-.37093.54933-.67346 1.22133-.67346M258.156 262.2948h10.49066c.672 0 1.22133.30254 1.22133.67347v3.10774c0 .37094-.54934.67187-1.22134.67187H258.156c-.672 0-1.22-.30093-1.22-.67186v-3.10773c-.00134-.37093.548-.67346 1.22-.67346M272.812 262.2948h10.492c.672 0 1.22133.30254 1.22133.67347v3.10774c0 .37094-.54934.67187-1.22134.67187h-10.492c-.67067 0-1.22-.30093-1.22-.6708v-3.1088c0-.37093.54933-.67346 1.22-.67346M287.46933 262.2948h10.492c.67066 0 1.22.30254 1.22.67347v3.10774c0 .37187-.54934.67187-1.22.67187h-10.492c-.67067 0-1.22-.30093-1.22-.67186v-3.10773c0-.37093.54933-.6724 1.22-.67346M302.12533 262.2948H312.616c.672 0 1.22133.30254 1.22133.67347v3.10774c0 .37094-.54934.67187-1.22.67187h-10.492c-.672 0-1.22-.30093-1.22-.67186v-3.10773c0-.37093.548-.67346 1.22-.67346M316.78133 262.2948H327.272c.67333 0 1.22133.30254 1.22133.67347l.00133 3.10774c-.00133.37094-.54933.67187-1.22267.67187h-10.49067c-.67067 0-1.22-.30093-1.22-.67186v-3.10773c.00133-.37093.54933-.67346 1.22-.67346M331.43733 262.2948h10.492c.67066 0 1.22.30254 1.22133.67347l-.00134 3.10774c0 .37094-.54933.67187-1.22.67187h-10.492c-.67066 0-1.22-.30093-1.22-.67186v-3.10773c0-.37093.54934-.67346 1.22-.67346M184.876 267.7948h18.68c.672 0 1.22133.30254 1.22133.67347v3.10774c0 .36934-.54934.67187-1.22134.67187h-18.68c-.67334 0-1.22134-.30253-1.22134-.67186v-3.10773c0-.37093.548-.67346 1.22134-.67346M207.72133 267.7948H218.212c.672 0 1.22133.30254 1.22133.67347v3.10774c0 .36934-.54934.67187-1.22134.67187h-10.48934c-.67333 0-1.22133-.30253-1.22267-.67186v-3.10773c0-.37093.54933-.67346 1.22133-.67346M222.37733 267.7948H232.868c.672 0 1.22133.30254 1.22133.67347v3.10774c-.00134.36934-.54934.67187-1.22134.67187h-10.49067c-.672 0-1.22134-.30253-1.22134-.67186v-3.10773c0-.37093.54933-.67346 1.22133-.67346M237.03333 267.7948h10.492c.67066 0 1.22133.30254 1.22133.67347v3.10774c0 .36934-.55067.67187-1.22133.67187h-10.492c-.67067 0-1.21867-.30253-1.22134-.67186l.00133-3.10773c0-.37093.54933-.67346 1.22-.67346M251.692 267.7948h10.48933c.672 0 1.22133.30254 1.22133.67347v3.10774c0 .36934-.54933.67187-1.22133.67187H251.692c-.672 0-1.22267-.30253-1.22267-.67186v-3.10773c0-.37093.55066-.67346 1.22266-.67346M266.34666 267.7948h10.49067c.672 0 1.22133.30254 1.22133.67454v3.10667c0 .36934-.54933.67187-1.22133.67187h-10.49067c-.67067 0-1.22133-.30253-1.22133-.67186v-3.10773c0-.37093.55066-.67346 1.22133-.67346M281.00266 267.7948h10.49067c.672 0 1.22133.30254 1.22133.67347v3.10774c0 .36934-.54933.67187-1.22133.67187h-10.49067c-.67067 0-1.22-.30253-1.22-.67186v-3.10773c0-.37093.54933-.67346 1.22-.67346M295.65866 267.7948h10.49067c.672 0 1.22133.30254 1.22133.67347v3.10774c0 .36934-.54933.67187-1.22133.67187h-10.49067c-.672 0-1.22133-.30253-1.22133-.67186v-3.10773c.00133-.37093.54933-.67346 1.22133-.67346M310.31466 267.7948h10.49067c.672 0 1.22133.30254 1.22266.67347v3.10774c0 .36934-.55067.67187-1.22267.67187h-10.49067c-.672 0-1.22133-.30253-1.22133-.67186v-3.10773c0-.37093.54933-.67346 1.22133-.67346M324.972 267.7948h16.956c.672 0 1.22132.30254 1.22132.67347v3.10774c0 .36934-.54933.67187-1.22133.67187h-16.956c-.672 0-1.22134-.30253-1.22134-.67186v-3.10773c.00133-.37093.54933-.67346 1.22133-.67346M214.188 273.364h10.49066c.672 0 1.22133.30267 1.22133.67347v3.10627c0 .3724-.54934.67347-1.22134.67347H214.188c-.672 0-1.22-.30106-1.22-.67346v-3.10627c0-.3708.548-.67346 1.22-.67346M228.844 273.364h10.49066c.67333 0 1.22133.30267 1.22133.67347v3.10627c0 .3724-.548.67347-1.22134.67347H228.844c-.67067.0016-1.22-.30106-1.22-.67346l-.00134-3.10627c.00133-.3708.55067-.67493 1.22133-.67346M243.50133 273.36507l10.49066-.00106c.67066 0 1.22.30267 1.22.67347v3.10627c.00133.3724-.54934.67347-1.22.67347h-10.49067c-.672 0-1.22134-.30106-1.22267-.67346l.00133-3.10627c0-.3708.54933-.67346 1.22133-.6724M258.156 273.364h10.49066c.672 0 1.22133.30267 1.22133.67347v3.10627c0 .3724-.54934.67347-1.22134.67347H258.156c-.672 0-1.22-.30106-1.22-.67346v-3.10627c0-.3708.548-.67346 1.22-.67346M272.812 273.364h10.492c.672 0 1.22133.30267 1.22133.67347v3.10627c0 .3724-.54934.67347-1.22134.6724l-10.492.00267c-.67067-.0016-1.22-.30266-1.22-.67506v-3.10627c0-.3708.54933-.67346 1.22-.67346M287.46933 273.364h10.492c.67066-.00146 1.22.30267 1.22.67347v3.10627c0 .3724-.54934.67507-1.22.67347h-10.492c-.67067 0-1.22-.30106-1.22-.67346v-3.10627c0-.3708.54933-.67346 1.22-.67346M302.12533 273.364h10.48933c.67333 0 1.22267.30267 1.22267.67347v3.10627c0 .3724-.54934.67347-1.22134.67347h-10.49067c-.672 0-1.22-.30106-1.22-.67346v-3.10627c0-.3708.548-.67346 1.22-.67346M184.876 273.364h23.22133c.672 0 1.22133.30267 1.22133.672v3.10774c0 .3724-.54933.67347-1.22133.6724l-23.22133.00107c-.672 0-1.22134-.30106-1.22134-.67346v-3.10627c0-.3708.54934-.67346 1.22134-.67346M318.70533 273.364l23.224-.00146c.67066.00147 1.22133.30413 1.22.67493v3.10627c0 .3724-.54934.67347-1.22.67507l-23.224-.0016c-.66934 0-1.22-.30106-1.22134-.67346l.00133-3.10627c0-.3708.55066-.67346 1.22-.67346M185.60933 278.99067H217.48c1.07466 0 1.95333.30414 1.95333.67334v3.10787c0 .36933-.87867.67347-1.95334.67347h-31.87067c-1.076 0-1.95467-.30414-1.95467-.67347V279.664c0-.3692.87867-.67333 1.95467-.67333M222.37733 278.99214H232.868c.672 0 1.22.30267 1.22133.67187v3.10787c0 .36933-.54934.67347-1.22134.67347h-10.49067c-.672 0-1.22134-.30414-1.22134-.67347V279.664c0-.3692.55066-.67186 1.22133-.67186M237.03333 278.99214h10.492c.67066 0 1.22133.30267 1.22133.67187v3.10787c0 .36933-.55067.67347-1.22133.67347h-10.492c-.67067 0-1.22-.30414-1.22-.67347V279.664c.00133-.3692.54933-.67186 1.22-.67186M251.692 278.99214h10.48933c.672 0 1.22133.30267 1.22133.67187v3.10787c0 .36933-.54933.67347-1.22.67347H251.692c-.672 0-1.22267-.30414-1.22267-.67347V279.664c0-.3692.55066-.67186 1.22266-.67186M266.34666 278.99214h10.49067c.672 0 1.22133.30267 1.22133.67187v3.10787c0 .3708-.54933.67347-1.22133.67347h-10.492c-.66934 0-1.22-.30414-1.22-.67347V279.664c0-.3692.55066-.67186 1.22133-.67186M281.00266 278.99214h10.49067c.672 0 1.22133.30267 1.22133.67187v3.10787c0 .36933-.54933.67347-1.22133.67347h-10.49067c-.67067 0-1.22-.30414-1.22-.67347V279.664c0-.3692.54933-.67186 1.22-.67186M295.65866 278.99214h10.492c.67067 0 1.22.30267 1.22.67187v3.10787c0 .36933-.54933.67347-1.22133.67347h-10.49067c-.672 0-1.22133-.30414-1.22133-.67347V279.664c0-.3692.54933-.67186 1.22133-.67186M341.196 278.99067c1.07466 0 1.95332.30414 1.95332.67334v3.10787c.00134.36933-.87866.67347-1.95333.67347h-30.148c-1.07467 0-1.95467-.30414-1.95467-.67347V279.664c0-.3692.88-.67333 1.95466-.67333h30.148M214.188 284.6136h10.49066c.672 0 1.22133.30254 1.22133.6728v3.1084c0 .3692-.54934.67347-1.22134.67347H214.188c-.672 0-1.22-.30427-1.22-.67347v-3.1084c0-.37026.548-.6728 1.22-.6728M229.57733 284.6136H297.228c1.07466 0 1.95333.30254 1.95333.6728v3.1084c0 .3692-.87734.67347-1.95334.67347h-9.02534l-5.63067-.0016-9.02534.0016h-43.97068c-1.07467 0-1.952-.30427-1.952-.67347v-3.1084c0-.37026.87733-.6728 1.95333-.6728M302.12533 284.6136l10.49066.00094c.672-.00094 1.22133.3016 1.22133.67186v3.1084c0 .3692-.54934.67347-1.22134.67347h-10.49067c-.672 0-1.22-.30427-1.22-.67347v-3.1084c0-.37026.548-.6728 1.22-.6728M184.876 284.6136l23.22133-.0016c.672.0016 1.22133.30414 1.22266.6744l-.00134 3.1084c0 .3692-.54933.67347-1.22133.67347H184.876c-.672 0-1.22134-.30427-1.22134-.67347v-3.1084c0-.37026.54934-.6728 1.22134-.6728" fill-rule="evenodd"/>
  <path d="M301.65733 284.6136h6.47066c.41333 0 .752.188.752.41454v1.9172c0 .22653-.33867.41346-.75067.41346h-6.472c-.41334 0-.752-.18693-.752-.41346v-1.9172c0-.22654.33866-.41454.752-.41454M325.72133 284.50787h7.13066c.38666 0 .7.17493.7.388v1.7812c0 .2136-.31334.38547-.69867.38547h-7.132c-.38534 0-.7-.17187-.7-.38547v-1.78227c0-.212.31466-.38693.7-.38693M316.26 287.27347h7.132c.38533 0 .7.1744.7.38533v1.78494c0 .21093-.31467.38546-.7.38546h-7.132c-.384-.00106-.69867-.17453-.69867-.38546v-1.78494c0-.21093.31466-.38533.69866-.38533M325.72133 287.27347h7.132c.38533 0 .7.1744.69866.38533v1.78494c0 .21093-.31334.38546-.7.38546h-7.13067c-.38534 0-.7-.17453-.7-.38546v-1.78494c0-.21093.31466-.38533.7-.38533M335.18266 287.27347h7.12933c.38532 0 .70132.1744.70132.38533v1.78494c0 .21093-.316.3844-.70133.38546h-7.13068c-.38533-.00106-.7-.17453-.7-.38546v-1.78494c0-.21093.31467-.38533.70134-.38533" fill-rule="evenodd"/>
  <path d="M170.96133 262.788h38.5l2.34266 9.8292H168.62l2.34133-9.8292" fill="#fff" fill-rule="evenodd"/>
  <path d="M170.96133 262.788h19.24933v9.8292H168.62l2.34133-9.8292" fill="#ccc" fill-rule="evenodd"/>
  <path d="M173.00933 269.112l34.40533-.0016c25.088.0016 45.61333 10.7896 45.61333 23.97507V314.976H127.3948v-21.89053c0-13.17613 20.5252-23.97346 45.61453-23.97346" fill="#ffc929" fill-rule="evenodd"/>
  <path d="M298.57866 292.236c6.408 0 11.652 5.24267 11.652 11.652v5.3412c0 6.40827-5.244 11.652-11.652 11.652-6.40933-.00093-11.65333-5.24373-11.65333-11.65053V303.888c0-6.40933 5.244-11.652 11.65333-11.652" fill="#fff" fill-rule="evenodd"/>
  <path d="M298.57866 292.236c.19067 0 .38267.0052.572.01454v14.85733h-1.14533v-14.85733c.19066-.00934.38133-.01454.57333-.01454" fill="#4d4d4d" fill-rule="evenodd"/>
  <path d="M294.82266 294.16827h.00133c1.53733 0 2.79733 1.2572 2.79733 2.79573v5.18814l.084-.0172v-1.35787c0-1.53693 1.25866-2.7968 2.796-2.7968 1.53866 0 2.79733 1.25987 2.79733 2.7968v.04693c.456-.3224 1.01067-.5136 1.60933-.5136 1.53866 0 2.79733 1.2604 2.796 2.79747v1.40253c.44533-.16346.936-.21826 1.43466-.13333h.00133c1.516.2604 2.54266 1.7136 2.28133 3.2308l-.992 5.76147c-.26 1.51453-1.692 6.188-3.22934 6.1864h-.00134l-.06533-.012c-1.716 2.088-4.00934 3.44013-7.54 3.44013-3.52934 0-7.37467-2.24267-8.752-5.4156-.39067-.23227-.82534-.52293-.97734-.9844l-2.95734-8.94787c-.48667-1.46933.288-8.0308 3.092-8.3308H290c.75733 0 1.472 3.24427 2.02666 3.6812v-6.0224c0-1.53853 1.25867-2.79573 2.796-2.79573" fill="#ffc7b0" fill-rule="evenodd"/>
  <path d="M299.176 307.6588h.50133c4.65466 0 8.26133 4.08134 8.74933 9.16667-1.08933-4.12707-4.384-7.22813-8.508-7.3416h-.01467l-.21734-.0036h-.52001l-.216.0036h-.01733c-4.124.112-7.416 3.21093-8.508 7.34013.48933-5.088 4.09733-9.1652 8.75066-9.1652" fill="#fff" fill-rule="evenodd"/>
  <path d="M299.16666 309.48027h.52c5.01067 0 8.852 4.40253 9.11333 9.7624l1.38533 28.424h-21.516l1.384-28.424c.26133-5.3624 4.10133-9.7624 9.11333-9.7624" fill="#f5c226" fill-rule="evenodd"/>
  <path d="M230.972 289.75307l1.77333-1.7728c3.796-3.7964 12.83866-8.5152 16.40666-4.50573l57.12 64.19213H271.34L230.972 314.976c-4.172-3.37866-3.79734-21.42653 0-25.22293" fill="#ffc929" fill-rule="evenodd"/>
  <path d="M85.68906 294.16827h-.0016c-1.5364 0-2.79573 1.2572-2.79573 2.79573v5.18654l-.0844-.0156v-1.35787c-.00107-1.53693-1.25787-2.7968-2.79533-2.7968h-.0016c-1.53907 0-2.7968 1.25827-2.7968 2.7968v.04693c-.45574-.3224-1.01054-.5136-1.60947-.5136v.0016c-1.538-.0016-2.79573 1.2588-2.79573 2.79587v1.40253c-.4448-.16346-.9376-.21826-1.436-.13333-1.5156.2604-2.54267 1.71507-2.28227 3.2308l.9916 5.76147c.25947 1.51453 1.69427 6.1864 3.2308 6.1864l.06667-.012c1.71613 2.088 4.0088 3.44013 7.54013 3.44013 3.5296 0 7.37493-2.24267 8.75093-5.4156.39227-.23227.82707-.52293.97814-.9844l2.9584-8.94787c.4844-1.46933-.29067-8.0308-3.09374-8.33186v.00106c-.75786 0-1.474 3.24427-2.02706 3.6812v-6.0224c0-1.53853-1.25947-2.79573-2.79694-2.79573" fill="#ffc7b0" fill-rule="evenodd"/>
  <path d="M81.336 307.6588h-.5c-4.65534 0-8.26307 4.08134-8.75 9.16667 1.08946-4.12707 4.38373-7.22813 8.50613-7.3416h.0172l.2172-.0036H81.34533l.2172.0036h.0172c4.1224.112 7.41667 3.21093 8.5072 7.34013-.4896-5.088-4.09573-9.1652-8.75093-9.1652" fill="#fff" fill-rule="evenodd"/>
  <path d="M81.34533 309.48027h-.5188c-5.01253 0-8.85253 4.40253-9.114 9.7624l-1.3828 28.424h21.514l-1.3844-28.424c-.26147-5.3624-4.10253-9.7624-9.114-9.7624" fill="#f5c226" fill-rule="evenodd"/>
  <path d="M149.54 289.75307l-1.77334-1.7728c-3.79466-3.7964-12.83866-8.5152-16.40733-4.50573L74.2412 347.66667h34.93066L149.54 314.976c4.17333-3.37866 3.79733-21.42653 0-25.22293" fill="#ffc929" fill-rule="evenodd"/>
  <path d="M161.13733 303.724h58.148c16.25866 0 27.52133 12.57334 29.83733 27.55054l2.53467 16.39213H128.764l2.53546-16.39213c2.31654-14.9772 13.57787-27.55054 29.83787-27.55054" fill="#d48f61" fill-rule="evenodd"/>
  <path d="M161.13733 336.48282h58.148c8.068 0 13.68666 4.79062 17.11733 11.18385h-92.38133c3.428-6.39323 9.048-11.18385 17.116-11.18385" fill="#4d4d4d" fill-rule="evenodd"/>
  <path d="M161.13733 338.4349h58.148c6.74266 0 11.684 3.7849 14.888 9.23177h-87.924c3.204-5.44688 8.144-9.23177 14.888-9.23177" fill="#333" fill-rule="evenodd"/>
  <path d="M129.5912 331.13174l-2.55574 16.53493h-.70373V333.7708l-17.15827 13.89587h-8.08853l30.2744-34.02547c.55213-.6172 1.2328-1.0292 2.006-1.26773-.95653 2.4572-1.6544 5.04627-2.06587 7.71453zm149.8368 16.53493h-8.088l-17.25067-13.96933v13.96933h-.70267l-2.56933-16.6188-1.69467-10.95987c-.064-.41866-.13733-.83493-.21333-1.24946l-.02534-.124-.004-.0224-.01867-.10147-.10267-.49587-.01867-.0964-.00667-.0276-.028-.12293-.08134-.3692-.02934-.12133-.01067-.04694-.01734-.07546-.08933-.36827-.03067-.12133-.02933-.1172v-.00574l-.032-.1208-.032-.12293-.032-.12133-.03067-.12134-.03467-.11986-.05867-.21347-.00667-.0292-.036-.12133-.03333-.1204-.03467-.11974-.03467-.11986-.036-.12027-.036-.11973-.03734-.12147-.036-.11867-.03733-.11986-.07467-.23747-.04-.11867-.03867-.1188-.03734-.1188-.12-.35306-.04133-.1172-.04134-.1188-.12534-.3536-.044-.1156-.04267-.11774-.04267-.1156-.13334-.34693-.044-.11613c.816.23333 1.53333.65213 2.108 1.29746zm-30.30534-16.39213l2.53467 16.39213" fill="#f7a31f" fill-rule="evenodd"/>
  <path d="M161.13733 292.53747h58.148c16.25866 0 27.52133 12.57293 29.83733 27.55053l4.264 27.57867h-1.72933l-2.53467-16.39213c-2.316-14.9772-13.57867-27.55054-29.83733-27.55054h-58.148c-16.26 0-27.52133 12.57334-29.83787 27.55054l-2.53546 16.39213h-1.72854l4.264-27.57867c2.31654-14.9776 13.57787-27.55053 29.83787-27.55053" fill="#ffbd8c" fill-rule="evenodd"/>
  <path d="M173.48933 249.73174h32.62533V262.788h-32.62533v-13.05626" fill="#ffc7b0" fill-rule="evenodd"/>
  <path d="M173.48933 249.73174h7.13467V262.788h-.144l-6.66667.00107-.324-.00106v-13.05626" fill="#ffba9e" fill-rule="evenodd"/>
  <path d="M176.03066 255.58027c-12.176-12.62293-13.32133-9.89746-19.82933-32.28706.39733-7.4344.464-27.13853 1.56-32.83186 2.756-14.30533 9.89733-22.61867 32.33733-22.38667 22.43867-.23333 29.58267 8.08 32.336 22.38667 1.096 5.69333 1.16267 25.39747 1.56 32.83187-6.50667 22.39067-7.65067 19.66414-19.82933 32.28707h-28.13467" fill="#482d14" fill-rule="evenodd"/>
  <path d="M162.67066 177.84267c4.644-6.42666 12.77334-9.92133 27.428-9.768 22.43867-.23333 29.58 8.08 32.336 22.38667 1.096 5.69467 1.16267 21.49333 1.56 28.92667-1.70667 5.87347-5.58667 10.52654-6.85333 13.67347l-12.89067 17.4692-27.19333-.79893c-12.17733-12.6224-11.128-14.22387-17.63467-36.6144.39734-7.43467.46267-23.23333 1.55867-28.92667.43733-2.272.988-4.388 1.68933-6.348" fill="#6f4c15" fill-rule="evenodd"/>
  <path d="M223.45733 207.612h.116c2.148 0 3.904 1.756 3.904 3.904v9.648c0 2.1464-1.756 3.90534-3.904 3.90534h-.1l.52133-1.77613c-.20533-3.84266-.32133-9.91986-.53733-15.6812" fill="#ffc7b0" fill-rule="evenodd"/>
  <path d="M224.21466 225.01454c-.20933.03493-.42267.0548-.64133.0548h-.1l.52133-1.77613c-.188-3.512-.3-8.8932-.484-14.1932 1.17867.67467 1.97467 1.944 1.97467 3.392v9.64547c0 1.136-.49067 2.16254-1.27067 2.87707" fill="#ffba9e" fill-rule="evenodd"/>
  <path d="M156.74 207.612h-.116c-2.148 0-3.904 1.756-3.904 3.904v9.648c0 2.148 1.756 3.90534 3.904 3.90534h.1l-.52267-1.77613c.20667-3.84266.32267-9.91986.53867-15.6812" fill="#ffc7b0" fill-rule="evenodd"/>
  <path d="M155.98266 225.01454c.20934.03493.424.0548.64134.0548h.1l-.52267-1.77613c.188-3.512.30267-8.8932.48533-14.1932-1.17733.67467-1.976 1.944-1.97466 3.392l-.00134 9.64547c0 1.136.49067 2.16254 1.272 2.87707" fill="#ffba9e" fill-rule="evenodd"/>
  <path d="M5.13125 263.69214h19.53902l1.02506 1.37867.0016 29.73187H6.1547l-1.02345-1.3772v-29.73333" fill="#ccc" fill-rule="evenodd"/>
  <path d="M5.13125 263.69214h19.53902v29.73333H5.13125v-29.73333" fill="#fff" fill-rule="evenodd"/>
  <path d="M6.98803 263.69214H8.0026v1.15053c0 .27867-.22916.5068-.50676.5068H7.4948c-.27865 0-.50677-.22813-.50677-.5068v-1.15053M10.04167 263.69214l1.01406.00107v1.15054c0 .2776-.2276.50573-.50625.50573h-.00156c-.27813 0-.50625-.22813-.50625-.5068v-1.15053M13.09636 263.69214h1.01297v1.14907c0 .28014-.22813.50827-.50666.50827-.27975 0-.5063-.22813-.5063-.5068v-1.15053M16.14947 263.69214H17.164v1.15053c0 .27867-.22907.5068-.50773.5068-.27867 0-.5068-.22813-.5068-.5068v-1.15053M19.20307 263.69214h1.01466v1.15053c0 .27867-.22813.5068-.5084.5068-.27866 0-.50626-.22973-.50626-.5068v-1.15053M22.2568 263.69214h1.014v1.15053c0 .27867-.22813.5068-.5068.5068-.278 0-.5072-.22813-.5072-.5068v-1.15053" fill="gray" fill-rule="evenodd"/>
  <path d="M7.2672 262.03747c.27864 0 .50624.2292.50624.50787v2.29733c0 .27867-.2276.5068-.50625.5068h-.00157c-.27866 0-.50626-.22813-.50626-.5068v-2.29733c0-.27867.2276-.50787.50782-.50787M10.3203 262.03747c.27866 0 .50782.2292.50522.50787l.00156 2.29733c.00104.27867-.22812.5068-.50677.5068-.27863 0-.5078-.22813-.5078-.5068v-2.29733c0-.27867.22917-.50787.5078-.50787M13.374 262.03747c.2796 0 .5072.2292.50627.50627v2.29893c.00093.27867-.22667.5068-.50627.5068-.2787 0-.5068-.22813-.50837-.5068l.00156-2.29733c0-.27867.2281-.50787.5068-.50787M16.42707 262.03747h.0016c.27866 0 .50626.2292.50626.50787v2.29733c0 .27974-.2276.5068-.50786.5068-.27867 0-.5068-.22813-.5068-.50826v-2.29586c0-.27867.22813-.50787.5068-.50787M19.48067 262.03747h.00106c.27867 0 .50627.2292.50627.50787v2.29733c.0016.27867-.2276.5068-.50627.5068-.27866 0-.50666-.22813-.50666-.5068v-2.29733c0-.27867.228-.50787.5056-.50787M22.53547 262.03747c.2796 0 .50626.2292.5072.50787v2.29733c0 .27867-.2276.5068-.5072.5068-.27867 0-.5068-.22813-.5068-.5068v-2.29733c0-.27867.22813-.50787.5068-.50787" fill="#333" fill-rule="evenodd"/>
  <path d="M7.39844 268.5292h2.02604v2.02707H7.39844zm.22916.2296h1.5677v1.56774H7.6276v-1.56773" fill="#b3b3b3" fill-rule="evenodd"/>
  <path d="M10.28385 268.72654h12.64482v1.63227H10.28385v-1.63226" fill="#ccc" fill-rule="evenodd"/>
  <path d="M6.87344 269.1104l.3828-.3692.84532.864 1.57917-1.46773.45364.4428-2.0078 1.63174-1.25313-1.1016" fill="#38ed38" fill-rule="evenodd"/>
  <path d="M7.39844 272.09214l2.02604-.00147v2.02654H7.39844zm.22812.2276H9.1953v1.56827l-1.5677.00107-.00104-1.56933" fill="#b3b3b3" fill-rule="evenodd"/>
  <path d="M10.28385 272.288l12.64482.00107v1.63227H10.28385V272.288" fill="#ccc" fill-rule="evenodd"/>
  <path d="M6.87344 272.6708l.3828-.36813.84532.8624 1.57917-1.46773.45364.4428-2.0078 1.63333-1.25313-1.10266" fill="#38ed38" fill-rule="evenodd"/>
  <path d="M7.39844 275.41454h2.02604v2.0256H7.39844zm.22916.22667h1.5677v1.5692H7.6276v-1.5692" fill="#b3b3b3" fill-rule="evenodd"/>
  <path d="M10.28385 275.60934l12.64482.00107v1.63334H10.28385v-1.6344" fill="#ccc" fill-rule="evenodd"/>
  <path d="M6.87344 275.9932l.3828-.36773.84428.86254 1.5802-1.46666.45365.44013-2.0078 1.63334-1.25313-1.1016" fill="#38ed38" fill-rule="evenodd"/>
  <path d="M7.39844 278.6812l2.02604-.00093v2.02654H7.39844zm.22916.2292h1.5677v1.56667H7.6276v-1.56666" fill="#b3b3b3" fill-rule="evenodd"/>
  <path d="M10.2854 278.87707h12.64327v1.63334H10.28385l.00156-1.63333" fill="#ccc" fill-rule="evenodd"/>
  <path d="M7.39844 281.8932h2.02604v2.0256H7.39844zm.22916.2292h1.5677v1.56827H7.6276v-1.56827" fill="#b3b3b3" fill-rule="evenodd"/>
  <path d="M10.28385 282.08907h12.64482v1.63333H10.28385v-1.63333" fill="#ccc" fill-rule="evenodd"/>
  <path d="M344.97732 297.9136l19.14667 6.11707.01332.00427.732.22653.08267-.08027c.88132.06147 1.784-.164 2.25066-.60933l21.07066-20.13067c.616-.58813.236-1.3428-.83866-1.6772l-18.36534-5.71093c-1.07733-.33586-2.46266-.12906-3.07733.45894l-21.47334 19.47187c-.43067.412.02533 1.55627.45866 1.92973" fill="#4d4d4d" fill-rule="evenodd"/>
  <path d="M383.82266 283.6864l-18.188-5.6572-16.02134 15.30574 18.19067 5.65573 16.01866-15.30427" fill-rule="evenodd"/>
  <path d="M357.61332 297.20787c-.99733-.31053-2.26533-.1224-2.836.4228-.56666.5412-.22133 1.2344.77734 1.54387.99733.31186 2.26533.12133 2.83466-.4224.568-.54427.22134-1.23494-.776-1.54427zm26.20934-13.52147l-18.188-5.6572-16.02134 15.30574 18.19067 5.65573zm-4.292-3.33426c-.26534-.0828-.604-.0324-.75467.11187-.152.14387-.05734.32814.20532.41054.26534.0828.604.03227.75467-.11307.152-.14266.05732-.32813-.20534-.40933zm-1.19067-.32973l-5.34534-1.6636c-.232-.0708-.532-.02706-.664.10107-.13334.1256-.05067.288.18133.36147l5.34666 1.66253c.232.07187.53066.02814.66133-.1.13332-.12653.052-.29066-.18-.36146zm8.98532.42814l-18.36533-5.7104c-1.07734-.33493-2.46-.12973-3.07734.4572L344.812 295.3292c-.616.58694-.236 1.34267.84132 1.6776l18.364 5.7104c1.07867.33587 2.46134.12974 3.076-.45986l21.07334-20.1292c.61333-.588.236-1.34267-.84134-1.6776" fill="#fff" fill-rule="evenodd"/>
  <path d="M378.34 280.0224l-5.34534-1.6636c-.232-.0708-.532-.02706-.664.10107-.13334.1256-.05067.288.18133.36147l5.34666 1.66253c.232.07187.53066.02814.66133-.1.13332-.12653.052-.29066-.18-.36146M379.53066 280.35214c-.26534-.0828-.604-.0324-.75467.11187-.152.14387-.05734.32814.20532.41054.26534.0828.604.03227.75467-.11307.152-.14266.05732-.32813-.20534-.40933M344.87066 296.5984l-.12934.124.912.2844 18.364 5.7104c.26267.0812.544.13067.82534.14947l-.08267.0812-19.10668-5.94107c-.32933-.10266-.59333-.24426-.78266-.4084" fill="#666" fill-rule="evenodd"/>
  <path d="M357.61332 297.20787c-.99733-.31053-2.26533-.1224-2.836.4228-.56666.5412-.22133 1.2344.77734 1.54387.99733.31186 2.26533.12133 2.83466-.4224.568-.54427.22134-1.23494-.776-1.54427" fill="#333" fill-rule="evenodd"/>
  <path d="M382.98932 283.79067l-17.09733-5.3172 1.652 20.07187z" fill="#1a1a1a" fill-rule="evenodd"/>
  <path d="M88.43906 182.12534h26.02547c2.8532 0 5.18653 2.33467 5.18813 5.18667l-.0016 50.48014c0 2.8532-2.33333 5.18813-5.18653 5.18813H88.43906c-2.85306 0-5.18746-2.33493-5.18746-5.18813V187.312c0-2.852 2.3344-5.18666 5.18746-5.18666" fill="#5c6370" fill-rule="evenodd"/>
  <path d="M101.45213 187.21734c7.90987 0 14.32293 6.41467 14.32293 14.32267 0 7.912-6.41306 14.324-14.32453 14.324-7.9088 0-14.32133-6.412-14.32133-14.324 0-7.908 6.41253-14.32266 14.32293-14.32266" fill="#1a1a1a" fill-rule="evenodd"/>
  <path d="M101.45053 190.52934c6.08067 0 11.0104 4.932 11.0104 11.01067 0 6.08134-4.92973 11.01067-11.0104 11.012-6.07973-.00133-11.0088-4.93066-11.0088-11.01066s4.92907-11.012 11.0088-11.012" fill="#b3b3b3" fill-rule="evenodd"/>
  <path d="M101.45053 197.92134c2 0 3.6208 1.62 3.6208 3.61867 0 2-1.6208 3.62-3.6208 3.62-1.9984 0-3.6188-1.62-3.6188-3.62 0-1.99866 1.6204-3.61866 3.6188-3.61866" fill="#333" fill-rule="evenodd"/>
  <path d="M101.45053 220.39587c3.91147 0 7.08173 3.1708 7.08173 7.08014 0 3.9104-3.17026 7.08134-7.08173 7.08134-3.90987 0-7.0808-3.17093-7.0808-7.08133 0-3.90933 3.17093-7.08013 7.0808-7.08013" fill="#e6e6e6" fill-rule="evenodd"/>
  <path d="M101.45053 223.39067c2.2588 0 4.08853 1.82907 4.08853 4.08534 0 2.25734-1.82973 4.08654-4.08853 4.08654-2.2568 0-4.086-1.8292-4.086-4.08653 0-2.25626 1.8292-4.08533 4.086-4.08533" fill="#70c470" fill-rule="evenodd"/>
  <path d="M90.9912 242.98027h6.84053v1.4676H90.9912v-1.4676M106.1208 242.98027h6.84013v1.4676h-6.84013v-1.4676" fill="#1a1a1a" fill-rule="evenodd"/>
  <path d="M98.09533 279.94374c-6.6276 4.93333-21.03907 4.012-28.0032-.0916 3.83853 1.3828 8.762 2.21613 14.13187 2.21613 5.25 0 10.07293-.7964 13.87133-2.12453" fill="#333" fill-rule="evenodd"/>
  <path d="M84.224 262.72547c12.25413 0 22.18746 4.3292 22.18746 9.6704 0 5.3416-9.93333 9.6708-22.18746 9.6708-12.25267 0-22.1876-4.3292-22.1876-9.6708.00107-5.3412 9.93333-9.6704 22.1876-9.6704" fill="#ccc" fill-rule="evenodd"/>
  <path d="M84.224 266.47707c7.49893 0 13.57706 2.65107 13.57706 5.9188 0 3.2692-6.07813 5.91774-13.57706 5.91774-7.49894 0-13.57667-2.64853-13.57667-5.91773 0-3.26773 6.07773-5.9188 13.57667-5.9188" fill="#e6e6e6" fill-rule="evenodd"/>
  <path d="M99.75266 254.276c3.15-.0812 4.1468 3.27614 2.46094 7.47347-1.68654 4.2-4.03494 4.19587-8.25787 7.07347-4.22293 2.87867.264-3.90933 1.83067-7.8032 1.56773-3.8932.81626-6.6624 3.96626-6.74373zm-2.99746 9.99747c1.6084.94534 2.03026-.08133 3.77186-2.74693 1.7412-2.66253.66987-5.16773-.7292-5.388-1.3984-.21973-1.72333 1.176-2.45773 3.34267-.73333 2.16827-2.19067 3.84694-.58493 4.79227" fill="#999" fill-rule="evenodd"/>
  <path d="M97.58693 251.4136c.09013 4.3728-1.14427 9.58907-3.3672 14.33854-1.02187 2.18387-2.66133 4.06667-2.36707 7.15987h-.0324c-.04 1.81347-3.42546 3.27867-7.59626 3.27867-4.16774 0-7.55214-1.46413-7.5948-3.27613h-.0276c.22653-3.2572-1.17454-5.1572-2.4428-7.1692-2.58427-4.10267-3.47134-9.26667-3.2604-14.14693.238 3.12294 6.11986 5.62134 13.3396 5.62134 7.3636 0 13.33226-2.5984 13.34893-5.80613" fill="#d6d6d6" fill-rule="evenodd"/>
  <path d="M84.238 245.5828c7.3724 0 13.348 2.60627 13.348 5.8188 0 3.21294-5.97667 5.81814-13.348 5.81814-7.3724 0-13.3484-2.6052-13.3484-5.81813 0-3.21253 5.976-5.8188 13.3484-5.8188zm0 .47974c6.76466 0 12.24893 2.39053 12.24893 5.33907 0 2.94894-5.48427 5.3396-12.24893 5.3396-6.76507 0-12.25-2.39066-12.25-5.3396 0-2.94853 5.48493-5.33906 12.25-5.33906" fill="#e3e3e3" fill-rule="evenodd"/>
  <path d="M84.238 246.06254c6.76466 0 12.24893 2.39053 12.24893 5.33907 0 2.94894-5.48427 5.3396-12.24893 5.3396-6.76507 0-12.25-2.39066-12.25-5.3396 0-2.94853 5.48493-5.33906 12.25-5.33906" fill="#d6d6d6" fill-rule="evenodd"/>
  <g clip-path="url(#a)" transform="matrix(.13333 0 0 -.13333 0 347.667)">
    <g clip-path="url(#b)">
      <path d="M537.898 747.781l.676.035 4.055-76.437-.676-.035z" fill="#6e1f18"/>
      <path d="M538.574 747.816l.676.039 4.055-76.441-.676-.035zM539.25 747.855l.676.036 4.054-76.438-.675-.039z" fill="#6d1f18"/>
      <path d="M539.926 747.891l.676.035 4.05-76.438-.672-.035z" fill="#6d1f18"/>
      <path d="M540.602 747.926l.671.035 4.055-76.438-.676-.035z" fill="#6d1f18"/>
      <path d="M541.273 747.961l.676.035 4.055-76.437-.676-.036z" fill="#6c1e18"/>
      <path d="M541.949 747.996l.676.035 4.055-76.437-.676-.035zM542.625 748.031l.676.039 4.054-76.441-.675-.035z" fill="#6c1e17"/>
      <path d="M543.301 748.07l.676.035 4.05-76.437-.672-.039z" fill="#6b1e17"/>
      <path d="M543.977 748.105l.671.036 4.055-76.438-.676-.035z" fill="#6b1e17"/>
      <path d="M544.648 748.141l.676.035 4.055-76.438-.676-.035z" fill="#6b1e17"/>
      <path d="M545.324 748.176l.676.035 4.055-76.438-.676-.035zM546 748.211l.676.035 4.054-76.437-.675-.036z" fill="#6a1e17"/>
      <path d="M546.676 748.246l.672.039 4.054-76.441-.672-.035z" fill="#6a1e17"/>
      <path d="M547.348 748.285l.675.035 4.055-76.437-.676-.039z" fill="#6a1e17"/>
      <path d="M548.023 748.32l.676.035 4.055-76.437-.676-.035z" fill="#691d17"/>
      <path d="M548.699 748.355l.676.036 4.055-76.438-.676-.035zM549.375 748.391l.676.035 4.054-76.438-.675-.035z" fill="#691d17"/>
      <path d="M550.051 748.426l.672.035 4.054-76.438-.672-.035z" fill="#681d16"/>
      <path d="M550.723 748.461l.675.039 4.055-76.441-.676-.036zM551.398 748.5l.676.035 4.055-76.437-.676-.039z" fill="#681d16"/>
      <path d="M552.074 748.535l.676.035 4.055-76.437-.676-.035zM552.75 748.57l.676.035 4.054-76.437-.675-.035z" fill="#671d16"/>
      <path d="M553.426 748.605l.672.036 4.054-76.438-.672-.035z" fill="#671d16"/>
      <path d="M554.098 748.641l.675.035 4.055-76.438-.676-.035z" fill="#671d16"/>
      <path d="M554.773 748.676l.676.039 4.055-76.442-.676-.035z" fill="#661c16"/>
      <path d="M555.449 748.715l.676.035 4.055-76.437-.676-.04zM556.125 748.75l.676.035 4.051-76.437-.672-.035z" fill="#661c16"/>
      <path d="M556.801 748.785l.672.035 4.054-76.437-.675-.035z" fill="#651c16"/>
      <path d="M557.473 748.82l.675.035 4.055-76.437-.676-.035zM558.148 748.855l.676.036 4.055-76.438-.676-.035z" fill="#651c15"/>
      <path d="M558.824 748.891l.676.039 4.055-76.442-.676-.035zM559.5 748.93l.676.035 4.051-76.438-.672-.039zM560.176 748.965l.672.035 4.054-76.437-.675-.036z" fill="#641c15"/>
      <path d="M560.848 749l.675.035 4.055-76.437-.676-.035z" fill="#641c15"/>
      <path d="M561.523 749.035l.676.035 4.055-76.437-.676-.035z" fill="#631b15"/>
      <path d="M562.199 749.07l.676.035 4.055-76.437-.676-.035z" fill="#631b15"/>
      <path d="M562.875 749.105l.672.04 4.055-76.442-.672-.035z" fill="#631b15"/>
      <path d="M563.547 749.145l.676.035 4.054-76.438-.675-.039z" fill="#621b15"/>
      <path d="M564.223 749.18l.675.035 4.055-76.438-.676-.035zM564.898 749.215l.676.035 4.055-76.437-.676-.036z" fill="#621b15"/>
      <path d="M565.574 749.25l.676.035 4.055-76.437-.676-.035z" fill="#611b14"/>
      <path d="M566.25 749.285l.672.035 4.055-76.437-.672-.035zM566.922 749.32l.676.039 4.054-76.441-.675-.035z" fill="#611b14"/>
      <path d="M567.598 749.359l.675.036 4.055-76.438-.676-.039z" fill="#611b14"/>
      <path d="M568.273 749.395l.676.035 4.055-76.438-.676-.035z" fill="#601a14"/>
      <path d="M568.949 749.43l.676.035 4.055-76.438-.676-.035zM569.625 749.465l.672.035 4.055-76.437-.672-.036z" fill="#601a14"/>
      <path d="M570.297 749.5l.676.035 4.054-76.437-.675-.035z" fill="#5f1a14"/>
      <path d="M570.973 749.535l.675.039 4.055-76.441-.676-.035zM571.648 749.574l.676.035 4.055-76.437-.676-.039z" fill="#5f1a14"/>
      <path d="M572.324 749.609l.676.036 4.051-76.438-.672-.035z" fill="#5e1a14"/>
      <path d="M573 749.645l.672.035 4.055-76.438-.676-.035zM573.672 749.68l.676.035 4.054-76.438-.675-.035z" fill="#5e1a13"/>
      <path d="M574.348 749.715l.675.035 4.055-76.437-.676-.036z" fill="#5e1a13"/>
      <path d="M575.023 749.75l.676.039 4.055-76.441-.676-.035z" fill="#5d1a13"/>
      <path d="M575.699 749.789l.676.035 4.051-76.441-.672-.035z" fill="#5d1913"/>
      <path d="M576.375 749.824l.672.035 4.055-76.437-.676-.039z" fill="#5d1913"/>
      <path d="M577.047 749.859l.676.036 4.054-76.438-.675-.035z" fill="#5c1913"/>
      <path d="M577.723 749.895l.675.035 4.055-76.438-.676-.035zM578.398 749.93l.676.035 4.055-76.438-.676-.035z" fill="#5c1913"/>
      <path d="M579.074 749.965l.676.039 4.051-76.441-.672-.036z" fill="#5b1913"/>
      <path d="M579.75 750.004l.672.035 4.055-76.441-.676-.035zM580.422 750.039l.676.035 4.054-76.437-.675-.039z" fill="#5b1913"/>
      <path d="M581.098 750.074l.675.035 4.055-76.437-.676-.035z" fill="#5b1912"/>
      <path d="M581.773 750.109l.676.036 4.055-76.438-.676-.035z" fill="#5a1912"/>
      <path d="M582.449 750.145l.672.035 4.055-76.438-.672-.035z" fill="#5a1812"/>
      <path d="M583.121 750.18l.676.039 4.055-76.442-.676-.035z" fill="#5a1812"/>
      <path d="M583.797 750.219l.676.035 4.054-76.441-.675-.036z" fill="#591812"/>
      <path d="M584.473 750.254l.675.035 4.055-76.437-.676-.039zM585.148 750.289l.676.035 4.055-76.437-.676-.035z" fill="#591812"/>
      <path d="M585.824 750.324l.672.035 4.055-76.437-.672-.035z" fill="#591812"/>
      <path d="M586.496 750.359l.676.036 4.055-76.438-.676-.035zM587.172 750.395l.676.039 4.054-76.442-.675-.035z" fill="#581812"/>
      <path d="M587.848 750.434l.675.035 4.055-76.442-.676-.035z" fill="#581812"/>
      <path d="M588.523 750.469l.676.035 4.051-76.438-.672-.039z" fill="#571811"/>
      <path d="M589.199 750.504l.672.035 4.055-76.437-.676-.036z" fill="#571711"/>
      <path d="M589.871 750.539l.676.035 4.055-76.437-.676-.035z" fill="#571711"/>
      <path d="M590.547 750.574l.676.035 4.054-76.437-.675-.035z" fill="#561711"/>
      <path d="M591.223 750.609l.675.039 4.055-76.441-.676-.035zM591.898 750.648l.676.036 4.051-76.442-.672-.035z" fill="#561711"/>
      <path d="M592.574 750.684l.672.035 4.055-76.438-.676-.039z" fill="#561711"/>
      <path d="M593.246 750.719l.676.035 4.055-76.438-.676-.035zM593.922 750.754l.676.035 4.054-76.437-.675-.036z" fill="#551711"/>
      <path d="M594.598 750.789l.675.035 4.055-76.437-.676-.035z" fill="#551711"/>
      <path d="M595.273 750.824l.676.039L600 674.422l-.672-.035z" fill="#541711"/>
      <path d="M595.949 750.863l.672.035 4.055-76.441-.676-.035z" fill="#541611"/>
      <path d="M596.621 750.898l.676.036 4.055-76.438-.676-.039z" fill="#541610"/>
      <path d="M597.297 750.934l.676.035 4.054-76.438-.675-.035z" fill="#531610"/>
      <path d="M597.973 750.969l.675.035 4.055-76.438-.676-.035zM598.648 751.004l.672.035 4.055-76.437-.672-.036z" fill="#531610"/>
      <path d="M599.32 751.039l.676.039 4.055-76.441-.676-.035z" fill="#531610"/>
      <path d="M599.996 751.078l.676.035 4.055-76.441-.676-.035zM600.672 751.113l.676.035 4.054-76.437-.675-.039z" fill="#521610"/>
      <path d="M601.348 751.148l.675.036 4.055-76.438-.676-.035z" fill="#521610"/>
      <path d="M602.023 751.184l.672.035 4.055-76.438-.672-.035z" fill="#511610"/>
      <path d="M602.695 751.219l.676.035 4.055-76.438-.676-.035z" fill="#511510"/>
      <path d="M603.371 751.254l.676.039 4.055-76.441-.676-.036z" fill="#511510"/>
      <path d="M604.047 751.293l.676.035 4.054-76.441-.675-.035z" fill="#501510"/>
      <path d="M604.723 751.328l.675.035 4.055-76.437-.676-.039zM605.398 751.363l.672.035 4.055-76.437-.672-.035z" fill="#50150f"/>
      <path d="M606.07 751.398l.676.036 4.055-76.438-.676-.035z" fill="#50150f"/>
      <path d="M606.746 751.434l.676.035 4.055-76.438-.676-.035zM607.422 751.469l.676.039 4.054-76.442-.675-.035z" fill="#4f150f"/>
      <path d="M608.098 751.508l.675.035 4.051-76.441-.672-.036z" fill="#4f150f"/>
      <path d="M608.773 751.543l.672.035 4.055-76.437-.676-.039z" fill="#4e150f"/>
      <path d="M609.445 751.578l.676.035 4.055-76.437-.676-.035z" fill="#4e150f"/>
      <path d="M610.121 751.613l.676.035 4.055-76.437-.676-.035z" fill="#4e140f"/>
      <path d="M610.797 751.648l.676.036 4.054-76.438-.675-.035z" fill="#4d140f"/>
      <path d="M611.473 751.684l.675.035 4.051-76.438-.672-.035z" fill="#4d140f"/>
      <path d="M612.148 751.719l.672.039 4.055-76.442-.676-.035zM612.82 751.758l.676.035 4.055-76.438-.676-.039z" fill="#4d140e"/>
      <path d="M613.496 751.793l.676.035 4.055-76.437-.676-.036zM614.172 751.828l.676.035 4.054-76.437-.675-.035z" fill="#4c140e"/>
      <path d="M614.848 751.863l.672.035 4.054-76.437-.672-.035z" fill="#4c140e"/>
      <path d="M615.52 751.898l.675.036 4.055-76.438-.676-.035zM616.195 751.934l.676.039 4.055-76.442-.676-.035z" fill="#4b140e"/>
      <path d="M616.871 751.973l.676.035 4.055-76.438-.676-.039zM617.547 752.008l.676.035 4.054-76.438-.675-.035z" fill="#4b130e"/>
      <path d="M618.223 752.043l.672.035 4.054-76.437-.672-.036z" fill="#4a130e"/>
      <path d="M618.895 752.078l.675.035 4.055-76.437-.676-.035zM619.57 752.113l.676.035 4.055-76.437-.676-.035z" fill="#4a130e"/>
      <path d="M620.246 752.148l.676.04 4.055-76.442-.676-.035zM620.922 752.188l.676.035 4.054-76.438-.675-.039z" fill="#49130d"/>
      <path d="M621.598 752.223l.672.035 4.054-76.438-.672-.035z" fill="#49130d"/>
      <path d="M622.27 752.258l.675.035L627 675.855l-.676-.035zM622.945 752.293l.676.035 4.055-76.437-.676-.036z" fill="#48130d"/>
      <path d="M623.621 752.328l.676.035 4.055-76.437-.676-.035zM624.297 752.363l.676.039 4.05-76.441-.671-.035z" fill="#48120d"/>
      <path d="M624.973 752.402l.672.036L629.699 676l-.676-.039z" fill="#47120d"/>
      <path d="M625.645 752.438l.675.035 4.055-76.438-.676-.035zM626.32 752.473l.676.035 4.055-76.438-.676-.035z" fill="#47120d"/>
      <path d="M626.996 752.508l.676.035 4.055-76.438-.676-.035z" fill="#46120d"/>
      <path d="M627.672 752.543l.676.035 4.05-76.437-.671-.036z" fill="#46120d"/>
      <path d="M628.348 752.578l.672.039 4.054-76.441-.676-.035z" fill="#46120c"/>
      <path d="M629.02 752.617l.675.035 4.055-76.437-.676-.039zM629.695 752.652l.676.036 4.055-76.438-.676-.035z" fill="#45120c"/>
      <path d="M630.371 752.688l.676.035 4.055-76.438-.676-.035z" fill="#45110c"/>
      <path d="M631.047 752.723l.672.035 4.054-76.438-.671-.035z" fill="#45110c"/>
      <path d="M631.719 752.758l.676.035 4.054-76.438-.676-.035z" fill="#44110c"/>
      <path d="M632.395 752.793l.675.039 4.055-76.441-.676-.036zM633.07 752.832l.676.035 4.055-76.437-.676-.039z" fill="#44110c"/>
      <path d="M633.746 752.867l.676.035 4.055-76.437-.676-.035zM634.422 752.902l.672.036 4.054-76.438-.671-.035z" fill="#43110c"/>
      <path d="M635.094 752.938l.676.035 4.054-76.438-.676-.035z" fill="#43110c"/>
      <path d="M635.77 752.973l.675.035 4.055-76.438-.676-.035zM636.445 753.008l.676.039 4.055-76.442-.676-.035z" fill="#42110b"/>
      <path d="M637.121 753.047l.676.035 4.055-76.437-.676-.04z" fill="#42100b"/>
      <path d="M637.797 753.082l.672.035 4.054-76.437-.671-.035z" fill="#42100b"/>
      <path d="M638.469 753.117l.676.035 4.054-76.437-.676-.035z" fill="#41100b"/>
      <path d="M639.145 753.152l.675.036 4.055-76.438-.676-.035zM639.82 753.188l.676.035 4.055-76.438-.676-.035z" fill="#41100b"/>
      <path d="M640.496 753.223l.676.039 4.051-76.442-.672-.035zM641.172 753.262l.672.035 4.054-76.438-.675-.039zM641.844 753.297l.676.035 4.054-76.437-.676-.036z" fill="#40100b"/>
      <path d="M642.52 753.332l.675.035 4.055-76.437-.676-.035z" fill="#40100b"/>
      <path d="M643.195 753.367l.676.035 4.055-76.437-.676-.035z" fill="#3f100b"/>
      <path d="M643.871 753.402l.676.036L648.598 677l-.672-.035z" fill="#3f100a"/>
      <path d="M644.547 753.438l.672.039 4.054-76.442-.675-.035z" fill="#3f0f0a"/>
      <path d="M645.219 753.477l.676.035 4.054-76.442-.676-.035z" fill="#3e0f0a"/>
      <path d="M645.895 753.512l.675.035 4.055-76.438-.676-.039zM646.57 753.547l.676.035 4.055-76.437-.676-.036z" fill="#3e0f0a"/>
      <path d="M647.246 753.582l.672.035 4.055-76.437-.672-.035zM647.918 753.617l.676.035 4.054-76.437-.675-.035zM648.594 753.652l.676.039 4.054-76.441-.676-.035z" fill="#3d0f0a"/>
      <path d="M649.27 753.691l.675.036L654 677.285l-.676-.035z" fill="#3d0f0a"/>
      <path d="M649.945 753.727l.676.035 4.055-76.438-.676-.039z" fill="#3c0f0a"/>
      <path d="M650.621 753.762l.672.035 4.055-76.438-.672-.035z" fill="#3c0f0a"/>
      <path d="M651.293 753.797l.676.035 4.054-76.437-.675-.036z" fill="#3c0e09"/>
      <path d="M651.969 753.832l.676.035 4.054-76.437-.676-.035z" fill="#3b0e09"/>
      <path d="M652.645 753.867l.675.039 4.055-76.441-.676-.035zM653.32 753.906l.676.035 4.055-76.441-.676-.035z" fill="#3b0e09"/>
      <path d="M653.996 753.941l.672.036 4.055-76.438-.672-.039zM654.668 753.977l.676.035 4.054-76.438-.675-.035z" fill="#3a0e09"/>
      <path d="M655.344 754.012l.676.035 4.054-76.438-.676-.035z" fill="#3a0e09"/>
      <path d="M656.02 754.047l.675.035 4.055-76.437-.676-.036z" fill="#3a0e09"/>
      <path d="M656.695 754.082l.676.039 4.051-76.441-.672-.035z" fill="#390e09"/>
      <path d="M657.371 754.121l.672.035 4.055-76.441-.676-.035z" fill="#390e09"/>
      <path d="M658.043 754.156l.676.035 4.054-76.437-.675-.039z" fill="#390d09"/>
      <path d="M658.719 754.191l.676.036 4.054-76.438-.676-.035z" fill="#380d09"/>
      <path d="M659.395 754.227l.675.035 4.055-76.438-.676-.035zM660.07 754.262l.676.035 4.051-76.438-.672-.035z" fill="#380d08"/>
      <path d="M660.746 754.297l.672.039 4.055-76.441-.676-.036z" fill="#380d08"/>
      <path d="M661.418 754.336l.676.035 4.054-76.441-.675-.035z" fill="#370d08"/>
      <path d="M662.094 754.371l.676.035 4.054-76.437-.676-.039z" fill="#370d08"/>
      <path d="M662.77 754.406l.675.035 4.055-76.437-.676-.035z" fill="#370d08"/>
      <path d="M663.445 754.441l.676.036 4.051-76.438-.672-.035z" fill="#360d08"/>
      <path d="M664.121 754.477l.672.035 4.055-76.438-.676-.035z" fill="#360d08"/>
      <path d="M664.793 754.512l.676.039 4.054-76.442-.675-.035z" fill="#360c08"/>
      <path d="M665.469 754.551l.676.035 4.054-76.441-.676-.036z" fill="#350c08"/>
      <path d="M666.145 754.586l.675.035 4.055-76.437-.676-.039zM666.82 754.621l.672.035 4.055-76.437-.672-.035z" fill="#350c08"/>
      <path d="M667.492 754.656l.676.035 4.055-76.437-.676-.035z" fill="#350c07"/>
      <path d="M668.168 754.691l.676.036 4.054-76.438-.675-.035z" fill="#340c07"/>
      <path d="M668.844 754.727l.676.039 4.054-76.442-.676-.035z" fill="#340c07"/>
      <path d="M669.52 754.766l.675.035 4.055-76.442-.676-.035z" fill="#340c07"/>
      <path d="M670.195 754.801l.672.035 4.055-76.438-.672-.039z" fill="#330c07"/>
      <path d="M670.867 754.836l.676.035 4.055-76.437-.676-.036zM671.543 754.871l.676.035 4.054-76.437-.675-.035z" fill="#330c07"/>
      <path d="M672.219 754.906l.676.035 4.054-76.437-.676-.035z" fill="#320b07"/>
      <path d="M672.895 754.941l.675.039 4.051-76.441-.672-.035zM673.57 754.98l.672.036 4.055-76.442-.676-.035z" fill="#320b07"/>
      <path d="M674.242 755.016l.676.035 4.055-76.438-.676-.039z" fill="#320b07"/>
      <path d="M674.918 755.051l.676.035 4.054-76.438-.675-.035z" fill="#310b06"/>
      <path d="M675.594 755.086l.676.035 4.054-76.437-.676-.036z" fill="#310b06"/>
      <path d="M676.27 755.121l.675.035 4.051-76.437-.672-.035z" fill="#310b06"/>
      <path d="M676.945 755.156l.672.039 4.055-76.441-.676-.035z" fill="#300b06"/>
      <path d="M677.617 755.195l.676.035 4.055-76.441-.676-.035zM678.293 755.23l.676.036 4.054-76.438-.675-.039z" fill="#300b06"/>
      <path d="M678.969 755.266l.676.035 4.054-76.438-.676-.035z" fill="#300a06"/>
      <path d="M679.645 755.301l.675.035 4.051-76.438-.672-.035zM680.32 755.336l.672.035 4.055-76.437-.676-.036z" fill="#2f0a06"/>
      <path d="M680.992 755.371l.676.035 4.055-76.437-.676-.035z" fill="#2f0a06"/>
      <path d="M681.668 755.406l.676.039 4.054-76.441-.675-.035zM682.344 755.445l.676.035 4.054-76.437-.676-.039z" fill="#2e0a06"/>
      <path d="M683.02 755.48l.671.036 4.055-76.438-.672-.035z" fill="#2e0a05"/>
      <path d="M683.691 755.516l.676.035 4.055-76.438-.676-.035z" fill="#2d0a05"/>
      <path d="M684.367 755.551l.676.035 4.055-76.438-.676-.035zM685.043 755.586l.676.035 4.054-76.437-.675-.036z" fill="#2d0a05"/>
      <path d="M685.719 755.621l.676.039 4.054-76.441-.676-.035z" fill="#2d0905"/>
      <path d="M686.395 755.66l.671.035 4.055-76.437-.672-.039zM687.066 755.695l.676.035 4.055-76.437-.676-.035z" fill="#2c0905"/>
      <path d="M687.742 755.73l.676.036 4.055-76.438-.676-.035z" fill="#2c0905"/>
      <path d="M688.418 755.766l.676.035 4.054-76.438-.675-.035zM689.094 755.801l.676.035 4.054-76.438-.676-.035z" fill="#2b0905"/>
      <path d="M689.77 755.836l.671.039 4.055-76.441-.672-.036zM690.441 755.875l.676.035 4.055-76.437-.676-.039z" fill="#2b0905"/>
      <path d="M691.117 755.91l.676.035 4.055-76.437-.676-.035zM691.793 755.945l.676.035 4.054-76.437-.675-.035z" fill="#2a0904"/>
      <path d="M692.469 755.98l.676.036 4.05-76.438-.672-.035z" fill="#2a0904"/>
      <path d="M693.145 756.016l.671.035 4.055-76.438-.676-.035zM693.816 756.051l.676.039 4.055-76.442-.676-.035z" fill="#290804"/>
      <path d="M694.492 756.09l.676.035 4.055-76.437-.676-.04z" fill="#290804"/>
      <path d="M695.168 756.125l.676.035 4.054-76.437-.675-.035z" fill="#280804"/>
      <path d="M695.844 756.16l.676.035 4.05-76.437-.672-.035z" fill="#280804"/>
      <path d="M696.52 756.195l.671.035 4.055-76.437-.676-.035z" fill="#280804"/>
      <path d="M697.191 756.23l.676.036 4.055-76.438-.676-.035z" fill="#280804"/>
      <path d="M697.867 756.266l.676.039 4.055-76.442-.676-.035zM698.543 756.305l.676.035 4.054-76.438-.675-.039z" fill="#270804"/>
      <path d="M699.219 756.34l.672.035 4.054-76.437-.672-.036z" fill="#270803"/>
      <path d="M699.891 756.375l.675.035 4.055-76.437-.676-.035zM700.566 756.41l.676.035 4.055-76.437-.676-.035z" fill="#260703"/>
      <path d="M701.242 756.445l.676.035 4.055-76.437-.676-.035zM701.918 756.48l.676.04 4.054-76.442-.675-.035z" fill="#260703"/>
      <path d="M702.594 756.52l.672.035 4.054-76.438-.672-.039z" fill="#250703"/>
      <path d="M703.266 756.555l.675.035 4.055-76.438-.676-.035zM703.941 756.59l.676.035 4.055-76.437-.676-.036z" fill="#250703"/>
      <path d="M704.617 756.625l.676.035 4.055-76.437-.676-.035zM705.293 756.66l.676.035 4.054-76.437-.675-.035zM705.969 756.695l.672.039 4.054-76.441-.672-.035z" fill="#240703"/>
      <path d="M706.641 756.734l16.847.891 4.055-76.437-16.848-.895z" fill="#240703"/>
    </g>
  </g>
  <path d="M75.44078 252.47978c.27506-3.33845 10.20188-3.18632 11.75597-2.9598 7.27222 1.05625-1.4317 5.58427-.2344 3.68538.1068-.16933 1.3401-2.26768-2.0634-2.2162-7.7446.1204-8.17167 2.89898-3.12073 3.79056 1.8577.32813 5.14827.28546 7.72314-.24892 2.5458-.52546 4.38803-1.54263 4.32603-1.17598-.57293 3.341-18.84327 4.70762-18.38662-.87504" fill="#a6705c" fill-rule="evenodd"/>
  <path d="M79.27828 244.56278c.57026-1.3249 1.2145-4.44616.3004-6.6957-.91238-2.2478-.01454-5.4612-.3004-5.10134-.28705.36146-1.94168 2.95873-.90104 5.26133 1.03904 2.3014.33013 7.86127.90104 6.5357M89.03844 244.56438c.56972-1.3265 1.2129-4.44776.30053-6.6973-.9141-2.2478-.01574-5.4612-.30053-5.10134-.28706.36146-1.94168 2.95873-.90424 5.26133 1.04064 2.3014.33332 7.86127.90424 6.5373M83.91097 242.83895c.56972-1.63596 1.2145-5.488.30052-8.26232-.91412-2.77607-.01467-6.74263-.30053-6.2973-.28706.4453-1.9417 3.65043-.90105 6.49316 1.03745 2.84258.33013 9.70228.90105 8.06645" fill="#fff" fill-rule="evenodd"/>
  <path d="M13.5934 182.01514l-6.2587 3.32125 35.65636 67.20378 6.2593-3.3202-35.65697-67.20484" fill="#573d30" fill-rule="evenodd"/>
  <path d="M80.1256 155.83446l-2.76913-6.5225-70.02176 29.7446 2.76922 6.5225 70.02168-29.7446" fill="#573d30" fill-rule="evenodd"/>
  <path d="M76.2481 155.50914c-1.15104 3.54524-1.07545 7.50648.50265 11.20505.23853.55864.50412 1.09463.79678 1.61195l29.23527-12.46235c-.17187-.568-.374-1.1333-.6136-1.69196-1.57648-3.69724-4.38108-6.49584-7.73673-8.1198l-5.90252-8.37312-18.06048 7.82913 1.77862 10.0011" fill="#593b30" fill-rule="evenodd"/>
  <path d="M9.07685 173.95534c-3.98843 0-7.22168 3.23326-7.22168 7.22116 0 3.9879 3.23325 7.22115 7.22168 7.22115 3.98637 0 7.21968-3.23325 7.21968-7.22115 0-3.98657-3.2333-7.22116-7.21968-7.22116" fill="#573d30" fill-rule="evenodd"/>
  <path d="M9.07685 176.77394c-2.43118 0-4.4025 1.97195-4.4025 4.40256 0 2.4306 1.97132 4.4039 4.4025 4.4039 2.43068 0 4.402-1.9733 4.402-4.4039s-1.97132-4.40256-4.402-4.40256" fill="#ccc" fill-rule="evenodd"/>
  <path d="M80.65945 166.08754l.08173.148 23.97234-10.37308c-.17027-.56665-.3708-1.13197-.612-1.69062-1.57542-3.69724-4.38108-6.49584-7.73673-8.1198l-4.7135-6.65583-3.10245 1.3453 4.6035 6.49984c3.35404 1.62263 6.82955 5.99052 7.7358 8.1198.90717 2.1266.17706.46.34732 1.0293l-20.57602 9.6971" fill="#e6e6e6" fill-rule="evenodd"/>
  <path d="M63.80467 246.26687H31.8352l-4.2047 11.6185h41.49537l-5.3212-11.6185" fill="#573d30" fill-rule="evenodd"/>
  <path d="M389.4036 241.0014l43.0016 10.45347-7.75448 36.3787-43.00426-10.4528 7.75714-36.37937" fill="#fff" fill-rule="evenodd"/>
  <path d="M391.56754 243.8764l37.72306 9.16897-6.80383 31.91533-37.72306-9.17057 6.80384-31.91374" fill="#ffc929" fill-rule="evenodd"/>
  <path d="M424.1894 276.9729l-1.70263 7.9878-37.72306-9.17057 1.70264-7.9862 37.72305 9.16897" fill="#91cccf" fill-rule="evenodd"/>
  <path d="M425.10804 272.661l-1.46796 6.88477-37.6524-9.50496 2.29595-10.77572 6.14918-2.59847 5.17854 8.61446 11.26105-10.6648 1.79862 11.17412 6.2105.088c.28133 2.501.41466 5.1676 1.02132 7.60247l5.2052-.81984" fill="#122640" fill-rule="evenodd"/>
  <path d="M428.71062 268.7903l3.12125 12.6357-4.09856-1.6213-.8253-2.55727 1.80262-8.45712" fill="#b3b3b3" fill-rule="evenodd"/>
  <path d="M407.9578 288.71794l28.41396 14.54857c1.66662.85466 1.69995 2.2709.07466 3.14686l-41.8083 22.53957c-1.62528.87705-4.31988.89478-5.9865.04l-28.4113-14.54803c-1.66928-.8557-1.70262-2.2702-.07866-3.14632l41.80962-22.53944c1.6253-.87705 4.31723-.89584 5.98652-.0412" fill="gray" fill-rule="evenodd"/>
  <path d="M403.51525 291.13508l25.75135 13.18607-36.17243 19.50218-25.7527-13.18714zm-24.9807 27.002c.85863.44105.87463 1.16396.03865 1.61342-.83864.45052-2.2106.46092-3.0706.02133-.85863-.44012-.87463-1.1629-.03865-1.61343.83598-.44945 2.2106-.46145 3.0706-.02133zm29.42325-30.79404l28.4113 14.5475c1.66928.85465 1.7026 2.26968.07732 3.14686l-41.8083 22.53944c-1.62528.8761-4.31988.89477-5.9865.0412l-28.4113-14.55018c-1.66928-.85464-1.70262-2.26927-.07866-3.14685l41.80962-22.5389c1.6253-.8761 4.31723-.89637 5.98652-.03906" fill="#fff" fill-rule="evenodd"/>
  <path d="M403.51525 291.13508l25.75135 13.18607-36.17243 19.50218-25.7527-13.18714 36.17378-19.50112" fill="#63b5b8" fill-rule="evenodd"/>
  <path d="M403.4819 291.8496l24.42607 12.50915-59.20652 6.2409z" fill="#91cccf" fill-rule="evenodd"/>
  <path d="M378.53454 318.13707c.85864.44106.87464 1.16397.03866 1.61343-.83864.45052-2.2106.46092-3.0706.02133-.85597-.44012-.87463-1.1629-.03865-1.61343.83598-.44945 2.2106-.46145 3.0706-.02133" fill="#1a1a1a" fill-rule="evenodd"/>
  <path d="M31.29348 299.36034c-.9713-.44945-1.9426-.8973-2.915-1.34677 2.941-6.52543 6.15452-12.9586 9.64404-19.30218.54945.25465 1.0989.50944 1.64835.7641-2.53007 6.74877-5.3488 13.36367-8.3774 19.88484" fill="#333" fill-rule="evenodd"/>
  <path d="M21.49786 310.87205l-.61718-.28532 6.10558-13.2466.61718.28545-6.10558 13.24647" fill="#e6e6e6" fill-rule="evenodd"/>
  <path d="M22.11505 311.15698l-.6172-.28493.95212-2.0666.6172.2849-.95212 2.06663" fill="#333" fill-rule="evenodd"/>
  <path d="M24.86298 313.75585l-3.2542-1.50156 7.11864-15.4423 3.25245 1.50157-7.1169 15.44228" fill="#333" fill-rule="evenodd"/>
  <path d="M28.27436 297.79638l.45306-.98438 3.25245 1.50157-.44946.97597-3.25604-1.49316" fill="#e6e6e6" fill-rule="evenodd"/>
  <path d="M23.0557 315.4626l-1.53797-.70678c-.30986-.14106-.448-.51092-.30466-.8229l.70145-1.52904 2.66553 1.22384-.70038 1.52916c-.14333.31092-.51305.44692-.82398.30573" fill="#666" fill-rule="evenodd"/>
  <path d="M21.83012 314.3705l-.00773-.00267c-.23174-.1068-.33494-.3828-.2276-.61612l.52438-1.14262.42972.19626-.71878 1.56516M40.07446 276.4193l-1.02437 1.1536-1.02758 1.13702.82918.3724.82184.38798.19426-1.5229.20666-1.5281" fill="#fff" fill-rule="evenodd"/>
  <path d="M40.07446 276.4193l-.43998.4948.1744.08013.17612.08133.08946-.65625" fill="gray" fill-rule="evenodd"/>
  <path d="M46.30098 277.15423l31.81427 10.1596-41.97295 21.65574zm2.65353 5.14507l18.50315 5.90665-24.4118 12.59555 5.90866-18.5022" fill="#ffcf4d" fill-rule="evenodd"/>
  <path d="M49.25037 278.09527l.30572.09893-.76985 2.4094-.3068-.09892.77092-2.4094M61.18447 281.9165l.3072.09747-.77025 2.40768-.30786-.09733.7709-2.4078M72.72472 285.60975l.30892.09733-.77145 2.40928-.30827-.0984.7708-2.4082M54.93356 279.91656l.30826.09746-.3848 1.2041-.30892-.09892.38546-1.20264M67.34205 283.8858l.30733.09893-.38546 1.20517-.3072-.1.38533-1.2041M52.19563 279.03805l.30666.1-.3848 1.2025-.30733-.09733.38546-1.20517M63.7364 282.73262l.30787.09853-.386 1.2041-.3072-.0984.38534-1.20423M57.7095 280.80467l.30732.09893-.38546 1.2025-.30733-.09733.38546-1.2041M70.36024 284.85244l.30733.09893-.38546 1.20263-.30732-.09746.38546-1.2041M45.47806 279.73123l-.098.3068 2.4094.7681.09734-.30825-2.40874-.76665M41.67442 291.67107l-.09893.30666 2.4094.7677.09893-.30625-2.4094-.7681M37.99638 303.21758l-.09893.30786 2.40994.7681.09786-.3093-2.40888-.76666M43.66558 285.41802l-.09734.30786 1.2041.38386.09894-.30786-1.2057-.38386M39.7126 297.83078l-.1.3068 1.20665.38532.0964-.30773-1.20304-.3844M44.53955 282.67902l-.09893.3068 1.20557.3828.09746-.3068-1.2041-.3828M40.86258 294.22407l-.0996.30826 1.20477.38386.09733-.30774-1.2025-.3844M42.7812 288.19395l-.09733.30946 1.20463.3812.0984-.30572-1.2057-.38493M38.74903 300.85097l-.09733.30626 1.2041.3844.09893-.3068-1.2057-.38386" fill="#666" fill-rule="evenodd"/>
  <g clip-path="url(#c)" transform="matrix(.13333 0 0 -.13333 0 347.667)">
    <g clip-path="url(#d)">
      <path d="M853 841.941h174v.0586H853z" fill="#4d4d4d"/>
      <path d="M853 841.582h174v.35937H853z" fill="#4d4d4d"/>
      <path d="M853 841.219h174v.36328H853zM853 840.859h174v.35937H853z" fill="#4c4c4c"/>
      <path d="M853 840.5h174v.35937H853z" fill="#4c4c4c"/>
      <path d="M853 840.141h174v.35937H853zM853 839.781h174v.35938H853z" fill="#4b4b4b"/>
      <path d="M853 839.422h174v.35937H853z" fill="#4b4b4b"/>
      <path d="M853 839.063h174v.35937H853zM853 838.703h174v.35938H853z" fill="#4a4a4a"/>
      <path d="M853 838.344h174v.35937H853z" fill="#4a4a4a"/>
      <path d="M853 837.984h174v.35938H853z" fill="#494949"/>
      <path d="M853 837.621h174v.36328H853z" fill="#494949"/>
      <path d="M853 837.262h174v.35937H853zM853 836.902h174v.35937H853z" fill="#494949"/>
      <path d="M853 836.543h174v.35937H853z" fill="#484848"/>
      <path d="M853 836.184h174v.35938H853zM853 835.824h174v.35937H853z" fill="#484848"/>
      <path d="M853 835.465h174v.35937H853zM853 835.105h174v.35938H853z" fill="#474747"/>
      <path d="M853 834.746h174v.35937H853z" fill="#474747"/>
      <path d="M853 834.383h174v.36328H853zM853 834.023h174v.35938H853z" fill="#464646"/>
      <path d="M853 833.664h174v.35937H853z" fill="#464646"/>
      <path d="M853 833.305h174v.35937H853z" fill="#464646"/>
      <path d="M853 832.945h174v.35937H853z" fill="#454545"/>
      <path d="M853 832.586h174v.35938H853z" fill="#454545"/>
      <path d="M853 832.227h174v.35937H853z" fill="#454545"/>
      <path d="M853 831.867h174v.35937H853z" fill="#444"/>
      <path d="M853 831.508h174v.35938H853zM853 831.148h174v.35938H853z" fill="#444"/>
      <path d="M853 830.785h174v.36328H853z" fill="#434343"/>
      <path d="M853 830.426h174v.35937H853zM853 830.066h174v.35937H853z" fill="#434343"/>
      <path d="M853 829.707h174v.35937H853z" fill="#434343"/>
      <path d="M853 829.348h174v.35937H853zM853 828.988h174v.35938H853z" fill="#424242"/>
      <path d="M853 828.629h174v.35938H853z" fill="#424242"/>
      <path d="M853 828.27h174v.35938H853zM853 827.91h174v.35937H853z" fill="#414141"/>
      <path d="M853 827.551h174v.35937H853z" fill="#414141"/>
      <path d="M853 827.188h174v.36328H853zM853 826.828h174v.35937H853z" fill="#404040"/>
      <path d="M853 826.469h174v.35937H853zM853 826.109h174v.35938H853z" fill="#404040"/>
      <path d="M853 825.75h174v.35937H853z" fill="#3f3f3f"/>
      <path d="M853 825.391h174v.35937H853zM853 825.031h174v.35937H853z" fill="#3f3f3f"/>
      <path d="M853 824.672h174v.35938H853z" fill="#3e3e3e"/>
      <path d="M853 824.313h174v.35937H853zM853 823.949h174v.36328H853z" fill="#3e3e3e"/>
      <path d="M853 823.59h174v.35938H853zM853 823.23h174v.35938H853z" fill="#3d3d3d"/>
      <path d="M853 822.871h174v.35937H853z" fill="#3d3d3d"/>
      <path d="M853 822.512h174v.35937H853z" fill="#3d3d3d"/>
      <path d="M853 822.152h174v.35937H853z" fill="#3c3c3c"/>
      <path d="M853 821.793h174v.35938H853z" fill="#3c3c3c"/>
      <path d="M853 821.434h174v.35937H853z" fill="#3c3c3c"/>
      <path d="M853 821.074h174v.35938H853z" fill="#3b3b3b"/>
      <path d="M853 820.715h174v.35938H853z" fill="#3b3b3b"/>
      <path d="M853 820.352h174v.36328H853z" fill="#3b3b3b"/>
      <path d="M853 819.992h174v.35937H853z" fill="#3a3a3a"/>
      <path d="M853 819.633h174v.35938H853zM853 819.273h174v.35938H853z" fill="#3a3a3a"/>
      <path d="M853 818.914h174v.35937H853z" fill="#3a3a3a"/>
      <path d="M853 818.555h174v.35937H853zM853 818.195h174v.35938H853z" fill="#393939"/>
      <path d="M853 817.836h174v.35937H853z" fill="#393939"/>
      <path d="M853 817.477h174v.35937H853zM853 817.117h174v.35937H853z" fill="#383838"/>
      <path d="M853 816.754h174v.36328H853z" fill="#383838"/>
      <path d="M853 816.395h174v.35937H853zM853 816.035h174v.35937H853z" fill="#373737"/>
      <path d="M853 815.676h174v.35938H853z" fill="#373737"/>
      <path d="M853 815.316h174v.35937H853z" fill="#363636"/>
      <path d="M853 814.957h174v.35937H853z" fill="#363636"/>
      <path d="M853 814.598h174v.35938H853zM853 814.238h174v.35938H853z" fill="#363636"/>
      <path d="M853 813.879h174v.35938H853z" fill="#353535"/>
      <path d="M853 813.516h174v.36328H853zM853 813.156h174v.35937H853z" fill="#353535"/>
      <path d="M853 812.797h174v.35938H853z" fill="#343434"/>
      <path d="M853 812.438h174v.35937H853zM853 812.078h174v.35938H853z" fill="#343434"/>
      <path d="M853 811.719h174v.35938H853zM853 811.359h174v.35937H853z" fill="#333"/>
      <path d="M853 811h174v.35937H853z" fill="#333"/>
      <path d="M853 810.641h174v.35937H853z" fill="#333"/>
      <path d="M853 810.281h174v.35938H853z" fill="#323232"/>
      <path d="M853 809.918h174v.36328H853z" fill="#323232"/>
      <path d="M853 809.559h174v.35937H853z" fill="#323232"/>
      <path d="M853 809.199h174v.35938H853z" fill="#313131"/>
      <path d="M853 808.84h174v.35937H853zM853 808.48h174v.35938H853z" fill="#313131"/>
      <path d="M853 808.121h174v.35937H853z" fill="#303030"/>
      <path d="M853 807.762h174v.35937H853zM853 807.402h174v.35937H853z" fill="#303030"/>
      <path d="M853 807.043h174v.35937H853z" fill="#303030"/>
      <path d="M853 806.684h174v.35938H853zM853 806.32h174v.36328H853z" fill="#2f2f2f"/>
      <path d="M853 805.961h174v.35937H853z" fill="#2f2f2f"/>
      <path d="M853 805.602h174v.35937H853zM853 805.242h174v.35937H853z" fill="#2e2e2e"/>
      <path d="M853 804.883h174v.35938H853z" fill="#2e2e2e"/>
      <path d="M853 804.523h174v.35938H853z" fill="#2d2d2d"/>
      <path d="M853 804.164h174v.35937H853z" fill="#2d2d2d"/>
      <path d="M853 803.805h174v.35937H853zM853 803.445h174v.35937H853z" fill="#2d2d2d"/>
      <path d="M853 803.082h174v.36328H853z" fill="#2c2c2c"/>
      <path d="M853 802.723h174v.35938H853zM853 802.363h174v.35937H853z" fill="#2c2c2c"/>
      <path d="M853 802.004h174v.35938H853z" fill="#2b2b2b"/>
      <path d="M853 801.645h174v.35937H853zM853 801.285h174v.35938H853z" fill="#2b2b2b"/>
      <path d="M853 800.926h174v.35937H853zM853 800.566h174v.35937H853z" fill="#2a2a2a"/>
      <path d="M853 800.207h174v.35937H853z" fill="#2a2a2a"/>
      <path d="M853 799.848h174v.35937H853z" fill="#2a2a2a"/>
      <path d="M853 799.484h174v.36328H853z" fill="#292929"/>
      <path d="M853 799.125h174v.35937H853z" fill="#292929"/>
      <path d="M853 798.766h174v.35937H853z" fill="#292929"/>
      <path d="M853 798.406h174v.35937H853z" fill="#282828"/>
      <path d="M853 798.047h174v.35937H853z" fill="#282828"/>
      <path d="M853 797.688h174v.35938H853z" fill="#282828"/>
      <path d="M853 797.328h174v.35937H853z" fill="#272727"/>
      <path d="M853 796.969h174v.35937H853zM853 796.609h174v.35938H853z" fill="#272727"/>
      <path d="M853 796.25h174v.35937H853z" fill="#272727"/>
      <path d="M853 795.887h174v.36328H853zM853 795.527h174v.35937H853z" fill="#262626"/>
      <path d="M853 795.168h174v.35937H853z" fill="#262626"/>
      <path d="M853 794.809h174v.35937H853zM853 794.449h174v.35937H853z" fill="#252525"/>
      <path d="M853 794.09h174v.35938H853z" fill="#252525"/>
      <path d="M853 793.73h174v.35938H853z" fill="#242424"/>
      <path d="M853 793.371h174v.35937H853z" fill="#242424"/>
      <path d="M853 793.012h174v.35937H853zM853 792.648h174v.36328H853z" fill="#242424"/>
      <path d="M853 792.289h174v.35938H853z" fill="#232323"/>
      <path d="M853 791.93h174v.35937H853zM853 791.57h174v.35938H853z" fill="#232323"/>
      <path d="M853 791.211h174v.35938H853z" fill="#222"/>
      <path d="M853 790.852h174v.35937H853zM853 790.492h174v.35937H853z" fill="#222"/>
      <path d="M853 790.133h174v.35938H853zM853 789.773h174v.35938H853z" fill="#212121"/>
      <path d="M853 789.414h174v.35937H853z" fill="#212121"/>
      <path d="M853 789.051h174v.36328H853z" fill="#212121"/>
      <path d="M853 788.691h174v.35938H853z" fill="#202020"/>
      <path d="M853 788.332h174v.35937H853z" fill="#202020"/>
      <path d="M853 787.973h174v.35938H853z" fill="#202020"/>
      <path d="M853 787.613h174v.35938H853z" fill="#1f1f1f"/>
      <path d="M853 787.254h174v.35938H853z" fill="#1f1f1f"/>
      <path d="M853 786.895h174v.35937H853z" fill="#1f1f1f"/>
      <path d="M853 786.535h174v.35937H853z" fill="#1e1e1e"/>
      <path d="M853 786.176h174v.35938H853zM853 785.816h174v.35937H853z" fill="#1e1e1e"/>
      <path d="M853 785.453h174v.36328H853z" fill="#1d1d1d"/>
      <path d="M853 785.094h174v.35938H853zM853 784.734h174v.35938H853z" fill="#1d1d1d"/>
      <path d="M853 784.375h174v.35937H853z" fill="#1d1d1d"/>
      <path d="M853 784.016h174v.35937H853zM853 783.656h174v.35937H853z" fill="#1c1c1c"/>
      <path d="M853 783.297h174v.35938H853z" fill="#1c1c1c"/>
      <path d="M853 782.938h174v.35937H853zM853 782.578h174v.35938H853z" fill="#1b1b1b"/>
      <path d="M853 782.215h174v.36328H853z" fill="#1b1b1b"/>
      <path d="M853 781.855h174v.35937H853z" fill="#1a1a1a"/>
      <path d="M853 781.496h174v.35937H853z" fill="#1a1a1a"/>
      <path d="M853 781.137h174v.35937H853zM853 780.777h174v.35938H853z" fill="#1a1a1a"/>
      <path d="M853 780.418h174v.35937H853z" fill="#191919"/>
      <path d="M853 780.059h174v.35937H853zM853 779.699h174v.35938H853z" fill="#191919"/>
      <path d="M853 779.34h174v.35937H853zM853 778.98h174v.35938H853z" fill="#181818"/>
      <path d="M853 778.617h174v.36328H853z" fill="#181818"/>
      <path d="M853 778.258h174v.35938H853zM853 777.898h174v.35938H853z" fill="#171717"/>
      <path d="M853 777.539h174v.35937H853z" fill="#171717"/>
      <path d="M853 777.18h174v.35938H853z" fill="#171717"/>
      <path d="M853 776.82h174v.35937H853z" fill="#161616"/>
      <path d="M853 776.461h174v.35937H853z" fill="#161616"/>
      <path d="M853 776.102h174v.35937H853z" fill="#161616"/>
      <path d="M853 775.742h174v.35937H853z" fill="#151515"/>
      <path d="M853 775.383h174v.35938H853z" fill="#151515"/>
      <path d="M853 775.02h174v.36328H853z" fill="#151515"/>
      <path d="M853 774.66h174v.35937H853z" fill="#141414"/>
      <path d="M853 774.301h174v.35937H853zM853 773.941h174v.35937H853z" fill="#141414"/>
      <path d="M853 773.582h174v.35937H853z" fill="#141414"/>
      <path d="M853 773.223h174v.35938H853zM853 772.863h174v.35937H853z" fill="#131313"/>
      <path d="M853 772.504h174v.35938H853z" fill="#131313"/>
      <path d="M853 772.145h174v.35937H853zM853 771.781h174v.36328H853z" fill="#121212"/>
      <path d="M853 771.422h174v.35937H853z" fill="#121212"/>
      <path d="M853 771.063h174v.35937H853zM853 770.703h174v.35938H853z" fill="#111"/>
      <path d="M853 770.344h174v.35937H853zM853 769.984h174v.35938H853z" fill="#111"/>
      <path d="M853 769.625h174v.35937H853z" fill="#101010"/>
      <path d="M853 769.266h174v.35937H853zM853 768.906h174v.35937H853z" fill="#101010"/>
      <path d="M853 768.547h174v.35937H853z" fill="#0f0f0f"/>
      <path d="M853 768.184h174v.36328H853zM853 767.824h174v.35937H853z" fill="#0f0f0f"/>
      <path d="M853 767.465h174v.35937H853zM853 767.105h174v.35938H853z" fill="#0e0e0e"/>
      <path d="M853 766.746h174v.35937H853z" fill="#0e0e0e"/>
      <path d="M853 766.387h174v.35937H853z" fill="#0e0e0e"/>
      <path d="M853 766.027h174v.35937H853z" fill="#0d0d0d"/>
      <path d="M853 765.668h174v.35937H853z" fill="#0d0d0d"/>
      <path d="M853 765.309h174v.35937H853z" fill="#0d0d0d"/>
      <path d="M853 764.949h174v.35937H853z" fill="#0c0c0c"/>
      <path d="M853 764.586h174v.36328H853z" fill="#0c0c0c"/>
      <path d="M853 764.227h174v.35937H853z" fill="#0c0c0c"/>
      <path d="M853 763.867h174v.35937H853z" fill="#0b0b0b"/>
      <path d="M853 763.508h174v.35938H853zM853 763.148h174v.35938H853z" fill="#0b0b0b"/>
      <path d="M853 762.789h174v.35938H853z" fill="#0b0b0b"/>
      <path d="M853 762.43h174v.35937H853zM853 762.07h174v.35938H853z" fill="#0a0a0a"/>
      <path d="M853 761.711h174v.35938H853z" fill="#0a0a0a"/>
      <path d="M853 761.348h174v.36328H853zM853 760.988h174v.35938H853z" fill="#090909"/>
      <path d="M853 760.629h174v.35938H853z" fill="#090909"/>
      <path d="M853 760.27h174v.35938H853zM853 759.91h174v.35937H853z" fill="#080808"/>
      <path d="M853 759.551h174v.35937H853zM853 759.191h174v.35938H853z" fill="#080808"/>
      <path d="M853 758.832h174v.35937H853z" fill="#070707"/>
      <path d="M853 758.473h174v.35938H853zM853 758.113h174v.35938H853z" fill="#070707"/>
      <path d="M853 757.75h174v.36328H853z" fill="#060606"/>
      <path d="M853 757.391h174v.35937H853zM853 757.031h174v.35937H853z" fill="#060606"/>
      <path d="M853 756.672h174v.35938H853z" fill="#050505"/>
      <path d="M853 756.313h174v.35937H853zM853 755.953h174v.35937H853z" fill="#050505"/>
      <path d="M853 755.594h174v.35938H853z" fill="#050505"/>
      <path d="M853 755.234h174v.35938H853z" fill="#040404"/>
      <path d="M853 754.875h174v.35937H853z" fill="#040404"/>
      <path d="M853 754.516h174v.35937H853z" fill="#040404"/>
      <path d="M853 754.152h174v.36328H853z" fill="#030303"/>
      <path d="M853 753.793h174v.35938H853z" fill="#030303"/>
      <path d="M853 753.434h174v.35937H853z" fill="#030303"/>
      <path d="M853 753.074h174v.35938H853z" fill="#020202"/>
      <path d="M853 752.715h174v.35938H853zM853 752.355h174v.35937H853z" fill="#020202"/>
      <path d="M853 751.996h174v.35937H853z" fill="#020202"/>
      <path d="M853 751.637h174v.35937H853zM853 751.277h174v.35938H853z" fill="#010101"/>
      <path d="M853 750.914h174v.36328H853z" fill="#010101"/>
      <path d="M853 750.555h174v.35937H853zM853 750.195h174v.35938H853z"/>
      <path d="M853 749.836h174v.35937H853zM853 749h174v.83594H853z"/>
    </g>
  </g>
  <path d="M137.7179 269.37682c0 3.65458-5.56494 6.6185-12.4293 6.6185-6.8661 0-12.42942-2.96392-12.42942-6.61956v-27.8249c0 3.6547 5.56333 6.61703 12.42942 6.61703 6.86596 0 12.4293-2.96234 12.4293-6.61705v27.82597" fill="#4d4d4d" fill-rule="evenodd"/>
  <path d="M125.2886 234.93235c6.86436 0 12.4293 2.96286 12.4293 6.6185 0 3.6547-5.56334 6.61704-12.4293 6.61704-6.8661 0-12.42942-2.96234-12.42942-6.61705 0-3.65457 5.56493-6.6185 12.42942-6.6185zm0 .47866c6.36798 0 11.53065 2.74834 11.53065 6.13985 0 3.39058-5.16267 6.13998-11.53065 6.13998-6.3681 0-11.53264-2.7494-11.53264-6.13998.0016-3.3915 5.16453-6.13984 11.53264-6.13984" fill="#699" fill-rule="evenodd"/>
  <path d="M112.4972 219.84473l.7265-.11053 3.9947 26.23014c-.2796-.12813-.54678-.26146-.80464-.4016l-3.91657-25.718" fill="#1a1a1a" fill-rule="evenodd"/>
  <path d="M113.95128 219.62233l-.72758.11187 3.9947 26.23014c.2568.1156.52186.2276.79425.33173l-4.06137-26.67374" fill="#666" fill-rule="evenodd"/>
  <path d="M113.95128 219.62233l.72652-.10946 4.12136 27.06346c-.26826-.088-.52972-.18133-.7865-.28026l-4.06138-26.67374" fill="gray" fill-rule="evenodd"/>
  <path d="M113.05024 216.14895l.8105 1.68956.81706 1.67437-1.0921.1532-1.0885.1776.28385-1.8417.2692-1.85302" fill="#f2d673" fill-rule="evenodd"/>
  <path d="M113.05024 216.14895l.62238 1.29584-.41665.0604-.4124.06665.20667-1.4229" fill="#1a1a1a" fill-rule="evenodd"/>
  <path d="M121.77402 226.3659l.73172-.08227 2.44954 21.26187c-.25-.00253-.49586-.012-.74225-.02133l-2.439-21.15827" fill="#245969" fill-rule="evenodd"/>
  <path d="M123.23652 226.19817l-.73078.08546 2.44954 21.26187.33332.00267c.13693 0 .27226-.00267.4072-.00413l-2.45928-21.34587" fill="#00b0f0" fill-rule="evenodd"/>
  <path d="M123.23652 226.19817l.7317-.0844 2.46462 21.40787c-.24226.0104-.48812.0172-.73705.0224l-2.45928-21.34587" fill="#0cf" fill-rule="evenodd"/>
  <path d="M122.46307 222.6956l.74838 1.71568.75678 1.7025-1.0989.11506-1.0953.13706.35212-1.83075.33692-1.83956" fill="#f2d673" fill-rule="evenodd"/>
  <path d="M122.46307 222.6956l.57452 1.31716-.41827.04373-.41665.05212.2604-1.41303" fill="#409eb8" fill-rule="evenodd"/>
  <path d="M140.2925 219.23274l.70264.21867-8.28232 26.78747c-.28013.11093-.5688.21706-.86718.31452l8.44685-27.32066" fill="#a30303" fill-rule="evenodd"/>
  <path d="M141.6978 219.6686l-.70266-.2172-8.28232 26.78747c.30892-.124.60518-.2532.8905-.38906l8.09447-26.1812" fill="#ed333d" fill-rule="evenodd"/>
  <path d="M141.6978 219.6686l.70264.21613-7.8758 25.4755c-.29066.16812-.59865.3348-.9213.48958l8.09445-26.1812" fill="#ff757d" fill-rule="evenodd"/>
  <path d="M142.40044 216.14895l-.00667 1.87342.00667 1.86236-1.05064-.33746-1.0573-.31453 1.0573-1.53436 1.05064-1.54943" fill="#f2d673" fill-rule="evenodd"/>
  <path d="M142.40044 216.14895l-.00533 1.43744-.39998-.12708-.40133-.11973.80664-1.19065" fill="#ed333d" fill-rule="evenodd"/>
  <path d="M127.77707 243.69507c1.23797.1276 2.47647.25572 3.71604.38492-.08492.88797-.17092 1.77595-.26358 2.66552-1.17437.33853-2.46447.58132-3.83004.70785.11973-1.25317.24466-2.50514.3776-3.7583" fill="#ff4747" fill-rule="evenodd"/>
  <path d="M134.22464 227.33667l.78665.0812-1.73237 16.87718-.78744-.08173 1.73314-16.87665" fill="#e6e6e6" fill-rule="evenodd"/>
  <path d="M133.43666 227.25548l.78798.0812-.27066 2.63166-.78704-.08226.26972-2.6306" fill="#333" fill-rule="evenodd"/>
  <path d="M129.43423 225.4274l4.14643.4281-2.01995 19.67552-4.14562-.42652 2.01915-19.6771" fill="#ff4747" fill-rule="evenodd"/>
  <path d="M131.68937 244.28158l-.12866 1.24944-4.14562-.42652.1276-1.24277 4.1467.41985M130.7822 222.87172l1.95768.1984c.3948.03853.68478.3948.6448.79064l-.19534 1.9453-3.39565-.3412.19625-1.94782c.03907-.3948.3964-.68545.79225-.64532" fill="#e6e6e6" fill-rule="evenodd"/>
  <path d="M132.54095 223.61023l.0104.00107c.29426.0296.51146.29626.48172.59052l-.14573 1.45783-.54692-.05627.20053-1.99315" fill="#fff" fill-rule="evenodd"/>
</svg>
